<?xml version="1.0" standalone="no"?>
<!DOCTYPE svg PUBLIC "-//W3C//DTD SVG 1.1//EN" "http://www.w3.org/Graphics/SVG/1.1/DTD/svg11.dtd" >
<svg xmlns="http://www.w3.org/2000/svg" xmlns:xlink="http://www.w3.org/1999/xlink" version="1.1">
<metadata></metadata>
<defs>
<font id="libre_bodonibold" horiz-adv-x="1685" >
<font-face units-per-em="2048" ascent="1638" descent="-410" />
<missing-glyph horiz-adv-x="327" />
<glyph unicode="&#xfb01;" horiz-adv-x="1255" d="M41 860v62h170v59q0 263 139.5 425.5t372.5 162.5q150 0 242 -64t92 -159q0 -61 -40 -99.5t-102 -38.5q-53 0 -88.5 30t-35.5 87q0 37 21.5 67.5t21.5 47.5q0 63 -121 63q-100 0 -159.5 -57t-59.5 -199v-325h598v-861h133v-61h-541v61h125v799h-315v-799h124v-61h-571v61 h164v799h-170z" />
<glyph unicode="&#xfb02;" horiz-adv-x="1298" d="M41 860v62h170v57q0 263 128 425.5t343 162.5q130 0 215 -62l217 39v-1483h154v-61h-582v61h145v799h-337v-799h149v-61h-596v61h164v799h-170zM494 922h337v311q-53 0 -87.5 29.5t-34.5 85.5q0 30 12.5 50.5t24.5 35t12 28.5q0 39 -88 39q-176 0 -176 -215v-364z" />
<glyph unicode="&#xfb03;" horiz-adv-x="1894" d="M41 860v62h170q2 260 124.5 419.5t326.5 159.5q115 0 188 -51t82 -127q66 117 176 181.5t254 64.5q150 0 242 -64t92 -159q0 -61 -40 -99.5t-102 -38.5q-53 0 -88.5 30t-35.5 87q0 37 21.5 67.5t21.5 47.5q0 63 -121 63q-100 0 -159.5 -57t-59.5 -199v-325h598v-861h133 v-61h-533v61h117v799h-315v-799h133v-61h-568v61h152v799h-356v-799h145v-61h-592v61h164v799h-170zM494 922h356v59q0 112 27 211q-36 -25 -84 -25q-53 0 -89 29.5t-36 85.5q0 30 12 51t24.5 35t12.5 29q0 39 -68 39q-155 0 -155 -215v-299z" />
<glyph unicode="&#xfb04;" horiz-adv-x="1933" d="M41 860v62h170q2 260 124.5 419.5t326.5 159.5q109 0 180.5 -46t87.5 -118q61 109 160.5 169.5t226.5 60.5q130 0 215 -62l217 39v-1483h154v-61h-582v61h145v799h-338v-799h150v-61h-596v61h164v799h-352v-799h145v-61h-592v61h164v799h-170zM494 922h352v57 q0 113 24 207q-36 -19 -77 -19q-53 0 -89 29.5t-36 85.5q0 30 12 51t24.5 35t12.5 29q0 39 -68 39q-155 0 -155 -215v-299zM1128 922h338v311q-53 0 -88 29.5t-35 85.5q0 30 12.5 50.5t25 35t12.5 28.5q0 39 -88 39q-177 0 -177 -215v-364z" />
<glyph horiz-adv-x="0" />
<glyph horiz-adv-x="682" />
<glyph horiz-adv-x="0" />
<glyph horiz-adv-x="0" />
<glyph unicode="&#xd;" horiz-adv-x="327" />
<glyph unicode=" "  horiz-adv-x="327" />
<glyph unicode="&#x09;" horiz-adv-x="327" />
<glyph unicode="&#xa0;" horiz-adv-x="327" />
<glyph unicode="!" horiz-adv-x="628" d="M133 1352q0 104 46 157.5t132 53.5q82 0 132.5 -51t50.5 -162q0 -63 -22.5 -148t-49.5 -166.5t-49.5 -236.5t-22.5 -340h-76q0 185 -22 340.5t-48.5 238t-48.5 167.5t-22 147zM135 154q0 74 53.5 127t126.5 53q74 0 127.5 -53.5t53.5 -126.5q0 -74 -54 -127.5t-127 -53.5 t-126.5 53.5t-53.5 127.5z" />
<glyph unicode="&#x22;" horiz-adv-x="915" d="M82 1401q0 80 48 121t120 41t120 -41t48 -121q0 -35 -14.5 -71.5t-35.5 -77t-42 -92t-35.5 -139t-14.5 -196.5h-53q0 109 -14.5 196.5t-35.5 139t-41.5 92t-35 77t-14.5 71.5zM498 1401q0 80 48 121t120 41t120 -41t48 -121q0 -35 -14.5 -71.5t-35.5 -77t-42 -92 t-35.5 -139t-14.5 -196.5h-53q0 109 -14.5 196.5t-35.5 139t-41.5 92t-35 77t-14.5 71.5z" />
<glyph unicode="#" horiz-adv-x="1118" d="M0 475v100h231l62 388h-193v102h209l78 498h131l-78 -498h314l77 498h115l-78 -498h252v-102h-268l-61 -388h229v-100h-246l-74 -475h-114l73 475h-313l-74 -475h-131l74 475h-215zM362 575h314l61 388h-313z" />
<glyph unicode="$" horiz-adv-x="1216" d="M47 322q0 87 50 145.5t136 58.5q71 0 114.5 -42.5t43.5 -112.5q0 -54 -27 -87.5t-59 -44t-59 -24t-27 -31.5q0 -34 68.5 -70.5t181.5 -52.5v572q-62 20 -113 44t-100 60.5t-82 80.5t-53.5 106t-20.5 135q0 170 100.5 277.5t268.5 144.5v166h82v-152q49 6 100 6 q45 0 68 -2v148h82v-160q158 -29 251 -115.5t93 -204.5q0 -81 -43.5 -127.5t-114.5 -46.5q-59 0 -100 31.5t-41 95.5q0 35 14 62t34 43t39.5 28.5t33.5 26t14 29.5q0 32 -48.5 60.5t-131.5 43.5v-532q75 -24 130.5 -47.5t108.5 -58.5t86.5 -77.5t53.5 -102t20 -132.5 q0 -174 -103.5 -296.5t-295.5 -166.5v-231h-82v219q-74 -8 -117 -8q-35 0 -51 2v-213h-82v219q-191 25 -306.5 114.5t-115.5 219.5zM242 1178q0 -74 48 -115.5t179 -83.5v430q-227 -52 -227 -231zM551 53h59q56 0 109 6v510q-81 17 -168 39v-555zM551 952q111 -31 168 -45 v516q-50 4 -76 4q-34 0 -92 -4v-471zM801 72q122 29 187 93.5t65 153.5q0 91 -66.5 142.5t-185.5 85.5v-475z" />
<glyph unicode="%" horiz-adv-x="1869" d="M94 1139q0 185 109 303.5t272 118.5t273 -118.5t110 -303.5q0 -186 -109.5 -303t-273.5 -117t-272.5 117t-108.5 303zM315 1139q0 -156 15 -236t48 -110.5t97 -30.5q61 0 93.5 29.5t49.5 111.5t17 236q0 153 -16.5 235.5t-50 113t-93.5 30.5q-64 0 -97 -31.5t-48 -111.5 t-15 -236zM416 0l839 1542h162l-839 -1542h-162zM1036 403q0 185 109 303.5t272 118.5t273 -118.5t110 -303.5q0 -186 -109.5 -302.5t-273.5 -116.5t-272.5 116.5t-108.5 302.5zM1257 403q0 -156 15 -236t48 -110t97 -30q61 0 93.5 29.5t49.5 111t17 235.5 q0 153 -16.5 235.5t-50 113t-93.5 30.5q-64 0 -97 -31.5t-48 -111.5t-15 -236z" />
<glyph unicode="&#x26;" horiz-adv-x="1712" d="M41 379q0 88 38 165t109.5 139.5t157.5 111.5t197 94l-41 63q-101 139 -101 273q0 153 119.5 245.5t327.5 92.5q189 0 310.5 -75t121.5 -196q0 -42 -17.5 -83.5t-58.5 -88t-120.5 -92t-190.5 -82.5l313 -485q87 98 138.5 225t56.5 246h-240v51h535v-51h-215 q-6 -125 -72.5 -274t-161.5 -263l217 -334h219v-61h-575l-98 152q-108 -97 -217.5 -138t-235.5 -41q-241 0 -378.5 117t-137.5 289zM369 598q0 -112 50 -223.5t137.5 -185.5t186.5 -74q107 0 228 100l-387 608q-125 -34 -170 -84.5t-45 -140.5zM676 1343q0 -16 5 -35t10 -33 t17.5 -37t18.5 -33t23.5 -37t21.5 -33l86 -136q72 31 116 109.5t44 179.5q0 203 -180 203q-84 0 -123 -41.5t-39 -106.5z" />
<glyph unicode="'" horiz-adv-x="499" d="M82 1401q0 80 48 121t120 41t120 -41t48 -121q0 -35 -14.5 -71.5t-35.5 -77t-42 -92t-35.5 -139t-14.5 -196.5h-53q0 109 -14.5 196.5t-35.5 139t-41.5 92t-35 77t-14.5 71.5z" />
<glyph unicode="(" horiz-adv-x="632" d="M61 680q0 244 109 475.5t371 491.5l51 -33q-95 -152 -144 -294.5t-64 -283.5t-15 -366q0 -145 6.5 -246t28 -220t67 -230.5t117.5 -225.5l-51 -27q-135 130 -230 257t-147.5 247t-75.5 229.5t-23 225.5z" />
<glyph unicode=")" horiz-adv-x="632" d="M41 1614l51 33q262 -260 370.5 -491.5t108.5 -475.5q0 -117 -22.5 -226t-75 -229t-147.5 -247t-230 -257l-51 27q72 114 117.5 226t67 230.5t28 218t6.5 241.5q0 172 -7.5 286t-31.5 230t-68 217t-116 217z" />
<glyph unicode="*" horiz-adv-x="907" d="M41 950q0 73 80 111q30 14 113.5 21.5t148.5 37.5v8q-65 29 -148 37.5t-114 22.5q-80 38 -80 112q0 43 30 77t81 34q38 0 68.5 -23.5t51 -55.5t59.5 -76.5t85 -75.5l6 4q-6 55 -27 104t-39 88t-18 74q0 49 29.5 81t85.5 32q58 0 88 -34.5t30 -84.5q0 -34 -17.5 -71 t-38.5 -85.5t-28 -103.5l7 -4q36 25 67.5 59t51.5 62.5t40.5 54.5t45 40.5t55.5 14.5q52 0 82 -38t30 -79q0 -33 -23 -64t-57 -46q-26 -12 -110 -20.5t-148 -35.5v-8q65 -28 149 -35.5t109 -19.5q34 -15 57 -46.5t23 -64.5q0 -41 -30 -78.5t-82 -37.5q-31 0 -55.5 14.5 t-45 40.5t-40.5 54.5t-51.5 62.5t-67.5 59l-7 -4q7 -53 28 -101.5t38.5 -86.5t17.5 -72q0 -49 -30 -83t-88 -34q-56 0 -85.5 32t-29.5 81q0 35 17.5 73t38.5 87t28 104l-6 4q-38 -26 -70 -60.5t-52 -62.5t-40.5 -53.5t-45 -40t-56.5 -14.5q-52 0 -81.5 34t-29.5 78z" />
<glyph unicode="+" horiz-adv-x="1183" d="M82 647v111h455v495h110v-495h455v-111h-455v-495h-110v495h-455z" />
<glyph unicode="," horiz-adv-x="630" d="M102 137q0 81 52 135t137 54q107 0 172 -85t65 -212q0 -264 -297 -447l-34 43q121 93 176 178.5t55 182.5q0 61 -22 61q-10 0 -24 -11.5t-28 -25.5t-41.5 -25.5t-60.5 -11.5q-72 0 -111 48t-39 116z" />
<glyph unicode="-" horiz-adv-x="808" d="M102 373v131h605v-131h-605z" />
<glyph unicode="." horiz-adv-x="561" d="M102 152q0 73 52.5 125.5t126.5 52.5q73 0 125.5 -52t52.5 -126t-52.5 -126.5t-125.5 -52.5t-126 52.5t-53 126.5z" />
<glyph unicode="/" horiz-adv-x="389" d="M-41 0l389 1542h162l-389 -1542h-162z" />
<glyph unicode="0" horiz-adv-x="1488" d="M90 737q0 164 50 306.5t137 242.5t208 157.5t258 57.5t258.5 -57.5t209 -157.5t138 -242.5t50.5 -306.5t-50.5 -306.5t-138 -242t-208.5 -156.5t-259 -57t-258.5 57t-207.5 156.5t-137 242t-50 306.5zM459 737q0 -285 26.5 -431.5t85 -202.5t172.5 -56q82 0 133.5 28.5 t87.5 105.5t51 210.5t15 345.5t-15 345.5t-51 211.5t-87.5 107t-133.5 29q-68 0 -114 -19t-80.5 -63t-53 -125.5t-27.5 -197.5t-9 -288z" />
<glyph unicode="1" horiz-adv-x="983" d="M16 0v61h324v1344h-324v61h648v-1405h303v-61h-951z" />
<glyph unicode="2" horiz-adv-x="1280" d="M66 0v199l475 374q159 126 216.5 226.5t57.5 230.5q0 176 -78 276.5t-213 100.5q-112 0 -198 -62.5t-86 -132.5q0 -41 28 -41q7 0 39.5 12.5t65.5 12.5q66 0 99.5 -38t33.5 -103q0 -83 -49.5 -124.5t-124.5 -41.5q-102 0 -154.5 71t-52.5 168q0 88 45 160t119.5 117.5 t168.5 69.5t195 24q98 0 187.5 -23t165 -68.5t120.5 -124t45 -179.5q0 -111 -61 -212t-205 -198l-588 -401v-8h668q27 0 43 2t32 10t24 22t14.5 38.5t9 59t2.5 85.5h61v-502h-1105z" />
<glyph unicode="3" horiz-adv-x="1232" d="M49 270q0 84 47.5 142.5t130.5 58.5q40 0 76 -13t64 -49.5t28 -91.5q0 -38 -13 -66.5t-31.5 -44.5t-37.5 -28t-32 -25t-13 -28q0 -39 74.5 -58.5t149.5 -19.5q140 0 212 93t72 266q0 354 -340 354h-155v71h114q332 0 332 349q0 74 -13.5 123.5t-41.5 76t-63 37t-85 10.5 q-70 0 -120 -16t-50 -49q0 -14 11 -27t27 -25t31.5 -26.5t26.5 -37t11 -50.5q0 -65 -51 -100t-117 -35q-70 0 -114 42.5t-44 113.5q0 54 26.5 103t79 90t142 65t203.5 24q230 0 364.5 -93t134.5 -243q0 -130 -111 -219t-335 -123v-10q150 -8 265 -54t184 -133t69 -206 q0 -87 -45 -167t-125.5 -141.5t-202.5 -98t-266 -36.5q-217 0 -343 79.5t-126 215.5z" />
<glyph unicode="4" horiz-adv-x="1372" d="M31 410v67l737 1022h209v-1024h256v162h63v-395h-63v168h-256v-349h197v-61h-742v61h221v349h-622zM125 475h528v729h-8l-520 -721v-8z" />
<glyph unicode="5" horiz-adv-x="1269" d="M59 264q0 83 51.5 135t133.5 52q71 0 121.5 -38.5t50.5 -113.5q0 -36 -13 -63.5t-32 -43t-37.5 -27t-31.5 -23t-13 -25.5q0 -34 64 -52t141 -18q160 0 243.5 94t83.5 281q0 202 -94 300.5t-256 98.5q-75 0 -152.5 -17.5t-109.5 -43.5l-35 22l59 684h699q64 0 90.5 14.5 t46.5 63.5h61l-73 -362h-768l-29 -310q158 43 344 43q149 0 265.5 -36t189 -99t110 -144.5t37.5 -176.5q0 -147 -89 -258.5t-238 -168.5t-334 -57q-226 0 -356 80t-130 209z" />
<glyph unicode="6" horiz-adv-x="1290" d="M94 596q0 180 80.5 351.5t213 299.5t313 209t370.5 88v-69q-163 -17 -292 -104.5t-204 -218.5t-98 -290l6 -2q114 90 260 90q134 0 247 -61t179 -168.5t66 -237.5q0 -142 -80.5 -260t-210.5 -183t-278 -65q-118 0 -223 44.5t-182 124t-122 197t-45 255.5zM438 453 q0 -228 49 -317t172 -89t170.5 90t47.5 322q0 124 -11.5 205.5t-36 125.5t-56.5 61t-79 17q-153 0 -235 -145q-21 -92 -21 -270z" />
<glyph unicode="7" horiz-adv-x="1208" d="M78 958l135 508h961v-102l-295 -508q-129 -224 -129 -369q0 -78 32.5 -187t32.5 -153q0 -85 -58.5 -128.5t-150.5 -43.5q-95 0 -144.5 48.5t-49.5 134.5q0 70 38 150.5t154 277.5l348 596h-671q-40 0 -56.5 -26.5t-53.5 -135.5q-4 -13 -6.5 -20t-6.5 -19t-8 -23h-72z" />
<glyph unicode="8" horiz-adv-x="1304" d="M70 369q0 156 121 257.5t325 139.5v10q-173 30 -279 125t-106 236q0 158 135 260t385 102q129 0 230.5 -29t164.5 -80t95.5 -116t32.5 -139q0 -139 -106 -235t-277 -126v-8q203 -40 323.5 -141t120.5 -256q0 -173 -150.5 -283.5t-433.5 -110.5t-432 110.5t-149 283.5z M428 379q0 -183 51.5 -262.5t171.5 -79.5t173 79.5t53 262.5q0 177 -52 263.5t-174 86.5q-121 0 -172 -85.5t-51 -264.5zM469 1128q0 -164 43 -245.5t141 -81.5t140.5 81.5t42.5 245.5q0 160 -41.5 229.5t-141.5 69.5t-142 -69.5t-42 -229.5z" />
<glyph unicode="9" horiz-adv-x="1290" d="M66 993q0 142 80 260.5t210.5 184t278.5 65.5q118 0 222.5 -44.5t182 -124.5t122 -197.5t44.5 -255.5q0 -181 -82.5 -347t-219.5 -285t-318 -192t-373 -80v70q251 25 413.5 176.5t196.5 390.5l-6 2q-114 -90 -260 -90q-205 0 -348 135t-143 332zM424 1018 q0 -124 11 -205.5t35.5 -126t56.5 -61.5t79 -17q80 0 139.5 40.5t96.5 105.5q20 88 20 270q0 229 -49.5 318.5t-171.5 89.5q-123 0 -170 -90.5t-47 -323.5z" />
<glyph unicode=":" horiz-adv-x="561" d="M102 152q0 73 52.5 125.5t126.5 52.5q73 0 125.5 -52t52.5 -126t-52.5 -126.5t-125.5 -52.5t-126 52.5t-53 126.5zM102 752q0 73 52.5 125.5t126.5 52.5q73 0 125.5 -52t52.5 -126t-52.5 -126.5t-125.5 -52.5t-126 52.5t-53 126.5z" />
<glyph unicode=";" horiz-adv-x="630" d="M102 137q0 81 52 135t137 54q107 0 172 -85t65 -212q0 -264 -297 -447l-34 43q121 93 176 178.5t55 182.5q0 61 -22 61q-10 0 -24 -11.5t-28 -25.5t-41.5 -25.5t-60.5 -11.5q-72 0 -111 48t-39 116zM102 752q0 73 52.5 125.5t126.5 52.5q73 0 125.5 -52t52.5 -126 t-52.5 -126.5t-125.5 -52.5t-126 52.5t-53 126.5z" />
<glyph unicode="&#x3c;" horiz-adv-x="1204" d="M123 637v137l958 479v-131l-827 -413l827 -414v-137z" />
<glyph unicode="=" horiz-adv-x="1224" d="M102 459v110h1020v-110h-1020zM102 860v111h1020v-111h-1020z" />
<glyph unicode="&#x3e;" horiz-adv-x="1204" d="M123 158v137l827 414l-827 413v131l958 -479v-137z" />
<glyph unicode="?" horiz-adv-x="962" d="M92 1241q0 124 98 213.5t250 89.5q197 0 319 -107t122 -272q0 -84 -28 -154t-73 -118.5t-99 -90t-108 -78.5t-99 -74t-73 -85.5t-28 -105.5h-62q-8 68 -8 137q0 92 20.5 167.5t54 126t73.5 92.5t79.5 76t73 66t54 72.5t20.5 87.5q0 89 -67.5 142t-166.5 53 q-76 0 -131 -27.5t-55 -58.5q0 -14 13 -24.5t31 -20t36.5 -23t31.5 -40.5t13 -66q0 -48 -41 -82.5t-102 -34.5q-64 0 -106 36t-42 103zM180 152q0 73 53 126.5t125 53.5q74 0 127.5 -53.5t53.5 -126.5q0 -72 -54 -125.5t-127 -53.5q-72 0 -125 53.5t-53 125.5z" />
<glyph unicode="@" horiz-adv-x="1710" d="M115 408q0 165 44 307.5t122 247t183 179t228 111.5t256 37q148 0 268 -46.5t199 -128t121.5 -191.5t42.5 -238q0 -161 -63 -298t-174.5 -217.5t-245.5 -80.5q-178 0 -181 135h-14q-30 -55 -90 -95t-139 -40q-109 0 -190 79.5t-81 229.5q0 104 42.5 203.5t109 170.5 t151 114t166.5 43q64 0 101.5 -28t66.5 -93h11l24 98h262l-147 -618q-6 -21 -6 -35q0 -41 49 -41q96 0 178 132.5t82 324.5q0 130 -42.5 233.5t-117.5 169.5t-174 100.5t-215 34.5q-152 0 -287.5 -59t-235 -162.5t-158 -254t-58.5 -324.5q0 -286 152.5 -461.5t424.5 -175.5 q301 0 496 235l47 -72q-128 -131 -258 -188t-285 -57q-141 0 -260.5 44.5t-210.5 131t-142.5 225.5t-51.5 318zM657 324q0 -79 17.5 -109.5t56.5 -30.5q56 0 116.5 53t98.5 160l62 244q0 10 2 27.5t2 29.5q0 56 -29.5 99t-75.5 43q-61 0 -120 -78.5t-94.5 -199t-35.5 -238.5 z" />
<glyph unicode="A" horiz-adv-x="1464" d="M-31 0v61h193l592 1502h53l545 -1502h143v-61h-711v61h213l-129 357h-497l-142 -357h240v-61h-500zM395 477h451l-211 580h-8z" />
<glyph unicode="B" horiz-adv-x="1538" d="M51 0v61h205v1422h-205v61h826q225 0 368.5 -100.5t143.5 -286.5q0 -140 -84.5 -234.5t-235.5 -136.5q377 -89 377 -389q0 -133 -76 -224t-201 -132t-292 -41h-826zM580 61h215q71 0 120.5 15.5t88.5 54.5t58 111t19 180q0 188 -67 259t-238 71h-196v-691zM580 823h215 q91 0 141.5 26.5t77 99t26.5 206.5q0 82 -9.5 139.5t-27.5 94.5t-49 57.5t-68 28.5t-91 8h-215v-660z" />
<glyph unicode="C" horiz-adv-x="1456" d="M102 762q0 156 56 302t153 256t238.5 176.5t302.5 66.5q102 0 179.5 -28.5t162.5 -92.5l90 102h51v-473h-61q-17 92 -50.5 166.5t-85 132.5t-126.5 89.5t-168 31.5q-66 0 -115 -16.5t-96 -65t-76.5 -130.5t-47 -218t-17.5 -322q0 -168 14.5 -288.5t41 -199t71.5 -124.5 t98.5 -64t128.5 -18q101 0 181.5 31.5t134.5 88t88 125.5t53 154h61v-444h-61l-91 94q-167 -121 -368 -121q-157 0 -296.5 64.5t-236.5 172.5t-153 252t-56 300z" />
<glyph unicode="D" horiz-adv-x="1634" d="M41 0v61h195v1422h-195v61h821q194 0 358.5 -106.5t258.5 -282.5t94 -377q0 -121 -36 -238t-103.5 -213.5t-156.5 -170.5t-202 -115t-233 -41h-801zM559 61h221q92 0 155.5 19t113.5 65t78.5 128.5t42.5 204.5t14 298q0 285 -39 438t-119 211t-227 58h-240v-1422z" />
<glyph unicode="E" horiz-adv-x="1425" d="M41 0v61h195v1422h-195v61h1282v-409h-82q-3 147 -93 247.5t-241 100.5h-348v-692q195 1 279.5 65t87.5 201h82v-615h-82q-3 149 -87.5 217.5t-279.5 69.5v-668h348q110 0 193.5 62t126.5 161.5t45 217.5h82v-502h-1313z" />
<glyph unicode="F" horiz-adv-x="1437" d="M41 0v61h195v1422h-195v61h1282v-440h-82q-3 161 -93 270t-241 109h-348v-695q195 1 279.5 65t87.5 202h82v-615h-82q-3 149 -87.5 217.5t-279.5 69.5v-666h262v-61h-780z" />
<glyph unicode="G" horiz-adv-x="1617" d="M102 752q0 168 60 318.5t163 258.5t246 171t303 63q99 0 175.5 -27.5t164.5 -93.5l80 102h62v-483h-62q-10 67 -30.5 127t-56 116.5t-82.5 97t-115 65t-150 24.5q-69 0 -120 -16.5t-100 -65.5t-80 -131t-49.5 -219.5t-18.5 -325.5q0 -162 14 -281t39 -196t65 -123.5 t87.5 -65t111.5 -18.5q125 0 189.5 64.5t64.5 183.5v256h-197v61h727v-61h-157v-205q-32 -103 -127.5 -189.5t-227.5 -136t-268 -49.5q-196 0 -359.5 103.5t-257.5 282.5t-94 393z" />
<glyph unicode="H" horiz-adv-x="1691" d="M41 0v61h195v1422h-195v61h719v-61h-201v-656h580v656h-201v61h723v-61h-199v-1422h199v-61h-723v61h201v705h-580v-705h201v-61h-719z" />
<glyph unicode="I" horiz-adv-x="790" d="M41 0v61h195v1422h-195v61h719v-61h-201v-1422h201v-61h-719z" />
<glyph unicode="J" horiz-adv-x="790" d="M-236 2q0 77 47 130.5t117 53.5q61 0 108.5 -40t47.5 -105q0 -36 -18.5 -79.5t-18.5 -53.5q0 -20 17 -29.5t40 -9.5q48 0 90 44t42 142v1428h-195v61h719v-61h-201v-1202q0 -121 -37.5 -215.5t-104 -154t-154.5 -90t-191 -30.5q-147 0 -227.5 57.5t-80.5 153.5z" />
<glyph unicode="K" horiz-adv-x="1660" d="M41 0v61h195v1422h-195v61h719v-61h-201v-688l672 688h-244v61h580v-61h-242l-453 -467l656 -953h164v-63h-791v63h219l-493 701l-68 -72v-631h201v-61h-719z" />
<glyph unicode="L" horiz-adv-x="1394" d="M41 0v61h195v1422h-195v61h760v-61h-242v-1422h348q110 0 193.5 62t126.5 161.5t45 217.5h82v-502h-1313z" />
<glyph unicode="M" horiz-adv-x="1898" d="M41 0v61h225v1422h-225v61h647l289 -932h8l289 932h594v-61h-213v-1422h213v-61h-756v61h219v1340h-8l-436 -1419h-84l-438 1419h-9v-1340h226v-61h-541z" />
<glyph unicode="N" horiz-adv-x="1619" d="M41 0v61h225v1422h-225v61h598l647 -911h8v850h-204v61h499v-61h-205v-1510h-90l-929 1340h-9v-1252h226v-61h-541z" />
<glyph unicode="O" d="M82 774q0 124 37.5 243t107 216.5t162.5 172t210 116t243 41.5q157 0 299 -64.5t243 -172t160.5 -252.5t59.5 -300t-59.5 -302t-160.5 -256.5t-243 -176t-299 -66.5t-299 66.5t-242.5 176.5t-159.5 256t-59 302zM471 774q0 -180 13 -304.5t38.5 -208.5t71.5 -131 t103.5 -66t142.5 -19q86 0 145.5 19.5t105 67t71.5 131.5t39 207t13 300t-13 299t-39 205.5t-72 130.5t-105 66.5t-145 19.5t-144.5 -19.5t-103.5 -65.5t-70.5 -129.5t-38 -205t-12.5 -297.5z" />
<glyph unicode="P" horiz-adv-x="1433" d="M41 0v61h195v1422h-195v61h860q145 0 264.5 -53t188.5 -148t69 -213q0 -194 -190 -312t-516 -118h-158v-639h242v-61h-760zM559 762h158q89 0 145.5 15.5t97 57t57.5 114.5t17 188q0 107 -14.5 176t-46 106t-72 50.5t-102.5 13.5h-240v-721z" />
<glyph unicode="Q" d="M82 774q0 124 37.5 243t107 216.5t162.5 172t210 116t243 41.5q157 0 299 -64.5t243 -172t160.5 -252.5t59.5 -300q0 -173 -70.5 -332t-197.5 -274.5t-287 -163.5q-5 -87 -5 -102q0 -96 26.5 -158.5t83.5 -96t129.5 -46.5t180.5 -13v-71q-231 0 -383.5 24t-252.5 82 t-143.5 149t-45.5 230q-161 48 -288 164t-198 275.5t-71 332.5zM471 774q0 -180 13 -304.5t38.5 -208.5t71.5 -131t103.5 -66t142.5 -19q86 0 145.5 19.5t105 67t71.5 131.5t39 207t13 300t-13 299t-39 205.5t-72 130.5t-105 66.5t-145 19.5t-144.5 -19.5t-103.5 -65.5 t-70.5 -129.5t-38 -205t-12.5 -297.5z" />
<glyph unicode="R" horiz-adv-x="1515" d="M41 0v61h195v1422h-195v61h819q148 0 265 -41t187 -121.5t70 -189.5q0 -153 -115 -248t-317 -125v-12q146 -33 261.5 -149.5t115.5 -256.5v-92q0 -140 30.5 -191.5t110.5 -51.5h78v-66h-239q-156 0 -260.5 86t-110.5 227l-10 224q-6 132 -77.5 199t-191.5 67h-98v-742 h242v-61h-760zM559 864h158q78 0 127 13t84 47.5t50 95.5t15 158q0 95 -14.5 155.5t-46 93t-72 44.5t-102.5 12h-199v-619z" />
<glyph unicode="S" horiz-adv-x="1165" d="M72 0v430h63q18 -79 54.5 -146t92.5 -122t138.5 -86t183.5 -31q165 0 256.5 79t91.5 202q0 39 -10.5 72t-26 56.5t-43.5 44t-50.5 32.5t-62 25t-62.5 19t-66.5 16t-61.5 15q-113 28 -197.5 67.5t-150 98t-99.5 141t-34 187.5q0 114 39.5 204t107 145.5t153 84.5t181.5 29 q88 0 160 -25t160 -80l80 86h63v-418h-61q-59 192 -158 278.5t-248 86.5q-137 0 -228 -62.5t-91 -164.5q0 -29 7.5 -53.5t23.5 -44t33 -35.5t45.5 -29.5t50 -22.5t57.5 -19t57 -15.5t59.5 -14t55.5 -12.5q243 -60 361 -182.5t118 -350.5q0 -243 -130.5 -377.5t-373.5 -134.5 q-118 0 -208.5 32t-172.5 93l-96 -98h-61z" />
<glyph unicode="T" horiz-adv-x="1482" d="M31 1042v502h1421v-502h-82q-2 118 -44.5 217.5t-126 161.5t-193.5 62h-103v-1422h242v-61h-821v61h256v1422h-103q-110 0 -193.5 -62t-126 -161.5t-44.5 -217.5h-82z" />
<glyph unicode="U" horiz-adv-x="1585" d="M31 1483v61h739v-61h-217v-1073q0 -355 350 -355q175 0 272 90t97 265v1073h-195v61h488v-61h-215v-1084q0 -219 -130 -322.5t-395 -103.5q-277 0 -436.5 107t-159.5 317v1086h-198z" />
<glyph unicode="V" horiz-adv-x="1366" d="M-51 1483v61h680v-61h-164l358 -987h8l363 987h-240v61h453v-61h-145l-551 -1501h-54l-546 1501h-162z" />
<glyph unicode="W" horiz-adv-x="2086" d="M-41 1483v61h1618v-61h-131l-158 -430l215 -578h8l369 1008h-205v61h453v-61h-180l-551 -1501h-54l-270 708l-287 -708h-94l-571 1501h-162zM477 1483l406 -1057h8l149 350l-268 707h-295zM1126 1483l127 -340l125 340h-252z" />
<glyph unicode="X" horiz-adv-x="1472" d="M-31 1483v61h742v-61h-207l299 -502l325 502h-217v61h473v-61h-182l-364 -563l512 -859h153v-61h-727v61h187l-340 570l-369 -570h238v-61h-515v61h201l410 631l-469 791h-150z" />
<glyph unicode="Y" horiz-adv-x="1568" d="M20 1483v61h721v-61h-176l385 -658h8l330 658h-221v61h481v-61h-182l-393 -783v-639h241v-61h-800v61h235v613l-489 809h-140z" />
<glyph unicode="Z" horiz-adv-x="1271" d="M20 0v80l848 1395v8h-278q-174 0 -278 -104t-107 -255h-82v420h1139v-82l-863 -1388v-8h355q122 0 215 62t140.5 160t49.5 214h82v-502h-1221z" />
<glyph unicode="[" horiz-adv-x="653" d="M174 -252v1866h469v-62h-194v-1742h194v-62h-469z" />
<glyph unicode="\" horiz-adv-x="305" d="M-123 1542h162l389 -1542h-162z" />
<glyph unicode="]" horiz-adv-x="653" d="M10 -190h195v1742h-195v62h469v-1866h-469v62z" />
<glyph unicode="^" horiz-adv-x="1026" d="M20 354l441 967h100l445 -967h-152l-344 754l-338 -754h-152z" />
<glyph unicode="_" horiz-adv-x="1196" d="M0 -143h1196v-111h-1196v111z" />
<glyph unicode="`" horiz-adv-x="548" d="M20 1462q0 40 30 67t85 27q83 0 146 -86l247 -335h-129l-280 194q-99 70 -99 133z" />
<glyph unicode="a" horiz-adv-x="1107" d="M86 207q0 147 155 232t416 85v240q0 53 -38.5 84t-102.5 31q-55 0 -92 -21t-37 -53q0 -16 21.5 -47t21.5 -62q0 -55 -42 -95t-101 -40q-60 0 -98.5 40.5t-38.5 100.5q0 105 117 174.5t296 69.5q165 0 271 -59t106 -152v-596q0 -19 13 -33t34 -14q17 0 36 14t54 54l41 -47 q-59 -71 -120.5 -104.5t-135.5 -33.5q-82 0 -131 37.5t-65 104.5h-9q-40 -59 -118.5 -100.5t-176.5 -41.5q-122 0 -199 64t-77 168zM383 242q0 -72 30.5 -113t86.5 -41q67 0 112 58.5t45 152.5v162q-133 0 -203.5 -55.5t-70.5 -163.5z" />
<glyph unicode="b" horiz-adv-x="1290" d="M41 0v61h166v1422h-166v61h448v-741h9q35 64 108 103.5t166 39.5q174 0 300 -136.5t126 -348.5t-127 -349t-301 -137q-92 0 -164.5 40t-107.5 104h-9v-119h-448zM489 430q0 -185 65 -280t171 -95q56 0 88.5 31.5t50 120.5t17.5 250q0 164 -18.5 254.5t-51 122.5t-88.5 32 q-104 0 -167.5 -91t-66.5 -265v-80z" />
<glyph unicode="c" horiz-adv-x="1064" d="M92 463q0 90 38.5 177.5t104.5 155t162 109t203 41.5q149 0 255 -72t106 -180q0 -70 -45.5 -110.5t-116.5 -40.5q-66 0 -107 37t-41 98q0 34 15 58t30 42.5t15 38.5q0 30 -27.5 47t-75.5 17q-38 0 -66.5 -10.5t-54.5 -40t-42 -79.5t-25.5 -130.5t-9.5 -190.5 q0 -154 20 -237t63.5 -116.5t122.5 -33.5q111 0 188 61.5t132 198.5h68q-43 -152 -147.5 -241t-258.5 -89q-103 0 -197.5 41.5t-161.5 109.5t-107 157t-40 182z" />
<glyph unicode="d" horiz-adv-x="1292" d="M92 461q0 106 36.5 198t96 154t137 97.5t158.5 35.5q93 0 166.5 -40t108.5 -103h8v680h-203v61h485v-1483h166v-61h-448v119h-8q-35 -64 -108 -104t-165 -40q-81 0 -158.5 35.5t-138 97.5t-97 154.5t-36.5 198.5zM410 459q0 -165 16 -252.5t48 -119.5t91 -32 q104 0 171 91t67 264v82q0 187 -64.5 280.5t-171.5 93.5q-59 0 -91.5 -33t-49 -121.5t-16.5 -252.5z" />
<glyph unicode="e" horiz-adv-x="1099" d="M92 467q0 90 36 175.5t99 153t158.5 109t206.5 41.5q187 0 308.5 -110.5t121.5 -294.5v-23h-612v-63q0 -127 9.5 -204.5t34.5 -124.5t62 -64t98 -17q238 0 347 238h67q-43 -142 -157 -226t-267 -84q-105 0 -200.5 41.5t-163.5 109.5t-108 158t-40 185zM412 580h321v125 q0 176 -147 176q-85 0 -125 -67.5t-49 -233.5z" />
<glyph unicode="f" horiz-adv-x="708" d="M41 840v61h170v80q0 263 123 425.5t328 162.5q122 0 197 -57.5t75 -139.5q0 -61 -39.5 -99t-101.5 -38q-53 0 -89 29.5t-36 85.5q0 24 7.5 42t17 27.5t17 21t7.5 23.5q0 39 -68 39q-155 0 -155 -215v-387h221v-61h-221v-779h206v-61h-653v61h164v779h-170z" />
<glyph unicode="g" horiz-adv-x="1157" d="M82 -371q0 78 53.5 138t143.5 96v8q-94 35 -142.5 87t-48.5 138q0 94 57 156t170 82q-82 41 -128 112.5t-46 165.5q0 154 118.5 244t297.5 90q108 0 199 -34.5t149 -98.5q51 137 162 137q54 0 92.5 -32t38.5 -87q0 -38 -22.5 -62t-65.5 -24q-27 0 -45 10.5t-25.5 22.5 t-20.5 22.5t-30 10.5q-19 0 -28.5 -13.5t-12.5 -49.5q31 -71 31 -136q0 -153 -121 -242t-301 -89h-127q-98 0 -158.5 -30t-60.5 -75q0 -31 27.5 -52.5t80.5 -21.5h435q168 0 253 -64t85 -226q0 -118 -45 -211t-122.5 -150t-175 -86t-208.5 -29q-199 0 -329 85t-130 208z M303 -344q0 -110 74 -179t203 -69q99 0 188.5 39t149 118t59.5 181q0 64 -29.5 91.5t-101.5 27.5h-481q-28 -29 -45 -91.5t-17 -117.5zM428 616q0 -110 12.5 -166t39 -76t79.5 -20q52 0 79.5 20.5t40.5 76t13 163.5q0 111 -13.5 169t-40.5 79t-79 21q-77 0 -104 -53 t-27 -214z" />
<glyph unicode="h" horiz-adv-x="1267" d="M41 0v61h166v1422h-166v61h448v-792h9q85 194 311 194q133 0 216 -64t83 -159v-662h129v-61h-551v61h139v672q0 67 -23 95t-67 28q-102 0 -174 -115.5t-72 -287.5v-392h134v-61h-582z" />
<glyph unicode="i" horiz-adv-x="653" d="M41 0v61h166v799h-166v62h448v-861h134v-61h-582zM178 1337q0 67 49 116.5t115 49.5q68 0 117 -49.5t49 -116.5q0 -66 -49.5 -114.5t-116.5 -48.5q-66 0 -115 48.5t-49 114.5z" />
<glyph unicode="j" horiz-adv-x="651" d="M-164 -461q0 60 39.5 97.5t101.5 37.5q54 0 89.5 -29.5t35.5 -88.5q0 -32 -14 -60t-14 -41q0 -39 43 -39q90 0 90 205v1239h-176v62h458v-994q0 -259 -113.5 -423t-287.5 -164q-105 0 -178.5 58t-73.5 140zM178 1337q0 67 49 116.5t115 49.5q68 0 117 -49.5t49 -116.5 q0 -66 -49.5 -114.5t-116.5 -48.5q-66 0 -115 48.5t-49 114.5z" />
<glyph unicode="k" horiz-adv-x="1265" d="M41 0v61h166v1422h-166v61h448v-1483h134v-61h-582zM506 520l371 340h-197v62h477v-62h-178l-246 -219l434 -580h119v-61h-592v61h129z" />
<glyph unicode="l" horiz-adv-x="673" d="M41 0v61h166v1422h-166v61h448v-1483h154v-61h-602z" />
<glyph unicode="m" horiz-adv-x="1863" d="M41 0v61h166v799h-166v62h448v-170h9q82 194 303 194q120 0 200.5 -54.5t94.5 -139.5h8q82 194 303 194q130 0 213.5 -64t83.5 -159v-662h129v-61h-551v61h139v693q0 50 -24 76t-68 26q-92 0 -161.5 -109t-69.5 -260v-426h129v-61h-551v61h139v693q0 50 -24 76t-68 26 q-96 0 -165 -117t-69 -288v-390h134v-61h-582z" />
<glyph unicode="n" horiz-adv-x="1257" d="M41 0v61h166v799h-166v62h448v-170h9q85 194 313 194q130 0 213.5 -64t83.5 -159v-662h129v-61h-551v61h139v693q0 50 -24 76t-68 26q-101 0 -172.5 -117t-71.5 -288v-390h134v-61h-582z" />
<glyph unicode="o" horiz-adv-x="1206" d="M92 459q0 212 147.5 349.5t362.5 137.5q141 0 257.5 -61t185.5 -173.5t69 -252.5t-69 -252t-185.5 -173t-257.5 -61q-215 0 -362.5 137t-147.5 349zM410 459q0 -171 19 -259.5t58.5 -121.5t114.5 -33t115 32.5t60 122t20 259.5t-20 259.5t-60 122.5t-115 33t-114.5 -33 t-58.5 -122t-19 -260z" />
<glyph unicode="p" horiz-adv-x="1300" d="M41 860v62h448v-119h9q35 64 108 103.5t166 39.5q174 0 300 -136.5t126 -348.5t-127 -349t-301 -137q-92 0 -164.5 40t-107.5 104h-9v-701h205v-61h-639v61h152v1442h-166zM489 410q0 -176 66 -265.5t172 -89.5q58 0 90 32.5t48 120t16 249.5q0 165 -16.5 254t-49 122 t-90.5 33q-106 0 -171 -89t-65 -267v-100z" />
<glyph unicode="q" horiz-adv-x="1271" d="M92 461q0 106 35 198t94 154t136.5 97.5t162.5 35.5q93 0 166.5 -40t108.5 -103h8v119h448v-62h-166v-1442h166v-61h-643v61h195v701h-8q-35 -64 -108 -104t-165 -40q-114 0 -211.5 60t-158 172.5t-60.5 253.5zM410 457q0 -163 16 -250t47.5 -119.5t89.5 -32.5 q106 0 173 89.5t67 265.5v82q0 187 -64.5 280.5t-171.5 93.5q-59 0 -91.5 -33t-49 -122t-16.5 -254z" />
<glyph unicode="r" horiz-adv-x="1036" d="M41 0v61h166v799h-166v62h448v-158h9q106 182 278 182q94 0 145.5 -48.5t51.5 -137.5q0 -84 -43 -127t-111 -43q-64 0 -109.5 36.5t-45.5 102.5q0 33 13 59.5t13 28.5q0 10 -16 10q-35 0 -77.5 -42t-75 -115.5t-32.5 -149.5v-459h134v-61h-582z" />
<glyph unicode="s" horiz-adv-x="878" d="M72 0v334h67l13 -60q22 -104 100.5 -164.5t220.5 -60.5q191 0 191 119q0 53 -47.5 85.5t-180.5 57.5q-62 12 -110 27t-92 40.5t-72.5 58.5t-45 81t-16.5 109q0 157 86.5 238t247.5 81q92 0 160 -24.5t94 -67.5l23 68h53v-297h-72l-6 30q-24 117 -79.5 167t-172.5 50 q-93 0 -141.5 -32t-48.5 -88q0 -33 16 -56t67 -45.5t144 -42.5q61 -13 107.5 -28.5t91 -41t73 -57.5t45.5 -79.5t17 -106.5q0 -156 -90 -238t-246 -82q-90 0 -172 28.5t-135 76.5l-31 -80h-59z" />
<glyph unicode="t" horiz-adv-x="724" d="M20 858v64q111 9 209 108t156 244h84v-352h236v-64h-236v-678q0 -92 78 -92q41 0 72.5 26t70.5 89l49 -29q-55 -111 -127.5 -156t-189.5 -45q-236 0 -236 172v713h-166z" />
<glyph unicode="u" horiz-adv-x="1255" d="M20 860v62h443v-695q0 -83 23 -118t73 -35q100 0 166 108.5t66 270.5v407h-168v62h450v-861h162v-61h-444v162h-9q-37 -84 -128 -136.5t-199 -52.5q-123 0 -199 66t-76 162v659h-160z" />
<glyph unicode="v" horiz-adv-x="1005" d="M-31 860v62h549v-62h-119l222 -518h8l209 518h-176v62h385v-62h-136l-372 -887h-60l-397 887h-113z" />
<glyph unicode="w" horiz-adv-x="1413" d="M-31 860v62h549v-62h-121l164 -477h8l199 539h74l223 -539h8l158 477h-162v62h385v-62h-149l-308 -887h-59l-233 572h-9l-217 -572h-59l-340 887h-111z" />
<glyph unicode="x" horiz-adv-x="1183" d="M14 0v61h148l313 328l-346 471h-98v62h569v-62h-117l191 -262l252 262h-168v62h385v-62h-144l-290 -311l356 -488h109v-61h-590v61h133l-205 279l-274 -279h182v-61h-406z" />
<glyph unicode="y" horiz-adv-x="1026" d="M-31 860v62h596v-62h-164l226 -500h8l203 500h-150v62h359v-62h-125l-551 -1317q-49 -117 -104.5 -161t-123.5 -44q-82 0 -119.5 44.5t-37.5 101.5q0 56 35 91.5t90 35.5q31 0 55.5 -13t37 -28t29.5 -28t35 -13q17 0 28 11.5t23 39.5l173 426l-414 854h-109z" />
<glyph unicode="z" horiz-adv-x="974" d="M51 0v72l539 788h-129q-129 0 -204.5 -85t-78.5 -212h-61v359h796v-70l-534 -791h178q119 0 197 74t84 211l2 33h61v-379h-850z" />
<glyph unicode="{" horiz-adv-x="614" d="M20 655v56q79 0 107.5 50.5t28.5 188.5v289q0 83 5.5 136.5t24 98.5t47.5 69t81.5 41t120 22.5t169.5 5.5v-62q-102 0 -138 -55t-36 -211v-340q0 -129 -45.5 -186t-163.5 -70v-8q117 -13 163 -71t46 -187v-342q0 -156 36 -211t138 -55v-62q-102 0 -169.5 5.5t-120 22.5 t-81.5 41t-47.5 69t-24 98.5t-5.5 136.5v291q0 138 -28.5 188.5t-107.5 50.5z" />
<glyph unicode="|" horiz-adv-x="751" d="M295 -252v1866h162v-1866h-162z" />
<glyph unicode="}" horiz-adv-x="614" d="M12 -186q102 0 138 55t36 211v342q0 129 46 187t163 71v8q-118 13 -163.5 70t-45.5 186v340q0 156 -36 211t-138 55v62q102 0 169.5 -5.5t120.5 -22.5t81.5 -41t47.5 -69t24.5 -98.5t5.5 -136.5v-289q0 -139 28 -189t107 -50v-56q-79 0 -107 -50t-28 -189v-291 q0 -83 -5.5 -136.5t-24.5 -98.5t-47.5 -69t-81.5 -41t-120.5 -22.5t-169.5 -5.5v62z" />
<glyph unicode="~" horiz-adv-x="972" d="M0 528q30 43 55.5 73t62 60.5t81.5 46t98 15.5q46 0 101 -19.5t97.5 -43t94.5 -43t94 -19.5q63 0 101.5 31.5t82.5 97.5l105 -92q-35 -45 -57 -70t-57.5 -55.5t-76.5 -44.5t-90 -14q-57 0 -127.5 31t-140 62t-123.5 31q-48 0 -86.5 -21t-60 -47.5t-52.5 -74.5z" />
<glyph unicode="&#xa1;" horiz-adv-x="628" d="M133 748q0 74 53.5 127t126.5 53q74 0 127.5 -53.5t53.5 -126.5q0 -74 -54 -127.5t-127 -53.5t-126.5 53.5t-53.5 127.5zM135 -449q0 63 22.5 148t49.5 166.5t49.5 236.5t22.5 340h75q0 -152 14.5 -281.5t35.5 -214t42 -153t35.5 -130.5t14.5 -114q0 -104 -46.5 -157.5 t-132.5 -53.5q-82 0 -132 51t-50 162z" />
<glyph unicode="&#xa2;" horiz-adv-x="1064" d="M92 758q0 112 58 216t165 174.5t238 82.5v272h59v-270q144 -3 246.5 -75t102.5 -177q0 -69 -43 -110.5t-109 -41.5q-62 0 -99.5 36.5t-37.5 99.5q0 36 15 65t29.5 50t14.5 38q0 49 -119 49v-819q112 0 190 60.5t134 197.5h68q-43 -149 -143.5 -237.5t-248.5 -92.5v-264 h-59v267q-192 17 -326.5 159.5t-134.5 319.5zM410 743q0 -203 31 -287.5t112 -101.5v807q-52 -12 -82 -52.5t-45.5 -128.5t-15.5 -237z" />
<glyph unicode="&#xa3;" horiz-adv-x="1144" d="M33 121q0 84 58.5 129t144.5 45q20 0 42.5 -2.5t52 -7t46.5 -6.5q4 18 4 57q0 52 -18 112t-48.5 141t-46.5 138h-184v100h162q-13 70 -13 138q0 111 30.5 207.5t89 170t152 116t210.5 42.5q163 0 267.5 -77.5t104.5 -209.5q0 -74 -35.5 -123t-103.5 -49q-54 0 -85.5 31 t-31.5 80q0 35 18.5 60t41 36.5t41 28.5t18.5 39q0 41 -52.5 77t-133.5 36q-111 0 -165 -71.5t-54 -193.5q0 -37 6 -83t11.5 -76t19 -92t18.5 -87h291v-100h-275q11 -82 11 -141q0 -185 -74 -359q102 -24 213 -24q123 0 194 48.5t78 166.5h80q0 -60 -9.5 -119.5t-34 -122 t-60 -110t-93.5 -77.5t-130 -30q-71 0 -138.5 34t-148.5 118q-36 -60 -118.5 -106t-172.5 -46q-85 0 -132.5 44.5t-47.5 117.5zM119 119q0 -40 26 -64t62 -24q49 0 91.5 46t61.5 103q-24 15 -64.5 25t-70.5 10q-47 0 -76.5 -26.5t-29.5 -69.5z" />
<glyph unicode="&#xa4;" horiz-adv-x="1370" d="M184 352l109 127q-88 125 -88 275q0 152 86 274l-107 127l107 96l102 -116q129 98 291 98q159 0 291 -98l104 116l107 -96l-109 -127q88 -125 88 -274q0 -150 -88 -275l109 -127l-107 -96l-104 117q-130 -97 -291 -97q-162 0 -289 97l-104 -117zM369 754 q0 -131 91.5 -222.5t223.5 -91.5t224.5 91.5t92.5 222.5t-92.5 223t-224.5 92t-223.5 -92t-91.5 -223z" />
<glyph unicode="&#xa5;" horiz-adv-x="1568" d="M20 1483v61h721v-61h-176l383 -658h8l332 658h-221v61h481v-61h-182l-356 -709h286v-100h-323v-158h323v-100h-323v-355h241v-61h-800v61h235v355h-360v100h360v158h-360v100h299l-428 709h-140z" />
<glyph unicode="&#xa6;" horiz-adv-x="751" d="M295 -250v821h162v-821h-162zM295 772v840h162v-840h-162z" />
<glyph unicode="&#xa7;" horiz-adv-x="1021" d="M61 680q0 102 49.5 176.5t143.5 106.5q-102 130 -102 270q0 138 93 224.5t267 86.5q153 0 242.5 -66.5t89.5 -168.5q0 -63 -34.5 -97t-86.5 -34t-80.5 31.5t-28.5 70.5q0 31 20 57.5t40 44.5t20 29q0 22 -49 42t-117 20q-92 0 -142 -40.5t-50 -105.5q0 -53 34.5 -103.5 t89.5 -94t121.5 -89t133.5 -97t122 -107.5t89.5 -131.5t34.5 -159.5q0 -103 -50 -177t-145 -106q104 -133 104 -268q0 -142 -98 -233t-272 -91q-158 0 -250 73t-92 183q0 66 33.5 98.5t84.5 32.5q53 0 82 -32t29 -70q0 -24 -12.5 -45.5t-27.5 -34.5t-27.5 -27.5t-12.5 -27.5 q0 -28 47.5 -53t126.5 -25q96 0 150.5 38.5t54.5 96.5q0 43 -34.5 90t-89.5 92t-122 94.5t-133.5 106.5t-121.5 118.5t-89.5 140t-34.5 161.5zM258 803q0 -56 48 -118.5t110 -111t153 -121.5t146 -130q49 39 49 100q0 55 -48 116.5t-110.5 110t-153 122t-145.5 130.5 q-49 -36 -49 -98z" />
<glyph unicode="&#xa8;" horiz-adv-x="700" d="M20 1366q0 55 40 95t96 40t95.5 -39.5t39.5 -95.5t-39.5 -95.5t-95.5 -39.5t-96 40t-40 95zM410 1366q0 56 40 95.5t95 39.5t95 -39.5t40 -95.5t-40 -95.5t-95 -39.5t-95 39.5t-40 95.5z" />
<glyph unicode="&#xa9;" horiz-adv-x="1705" d="M82 762q0 157 60 301t162.5 249.5t245.5 168.5t302 63q157 0 300 -61.5t246.5 -165.5t164.5 -249t61 -306t-61.5 -306.5t-165.5 -249.5t-246.5 -165t-298.5 -61q-159 0 -302 63t-245.5 168.5t-162.5 249.5t-60 301zM182 760q0 -184 90.5 -341t244.5 -248t335 -91 q183 0 338 93.5t244.5 251t89.5 339.5q0 183 -90.5 339.5t-245.5 248.5t-336 92q-183 0 -337.5 -93t-243.5 -250.5t-89 -340.5zM389 784q0 122 63 228t177 170.5t252 64.5q126 0 215 -69l37 59h38v-272h-49q-46 217 -239 217q-39 0 -68 -9.5t-56.5 -36.5t-45.5 -73 t-28.5 -121.5t-10.5 -179.5q0 -150 24 -235t67.5 -116.5t117.5 -31.5q201 0 250 205h51v-256h-41l-31 55q-101 -72 -238 -72q-100 0 -190.5 39t-154.5 104t-102 151.5t-38 178.5z" />
<glyph unicode="&#xaa;" horiz-adv-x="688" d="M20 1090q0 93 93.5 150.5t267.5 57.5v160q0 47 -88 47q-39 0 -60.5 -14.5t-21.5 -34.5q0 -8 9 -24.5t9 -32.5q0 -34 -24.5 -55t-59.5 -21q-37 0 -59.5 23.5t-22.5 56.5q0 65 71.5 113.5t187.5 48.5q114 0 181.5 -41t67.5 -109v-360q0 -27 31 -27q19 0 39 25l27 -45 q-70 -70 -154 -70q-101 0 -125 100h-8q-25 -44 -77.5 -72t-108.5 -28q-75 0 -125 41.5t-50 110.5zM217 1126q0 -44 21.5 -68t58.5 -24q34 0 59 31.5t25 87.5v90q-164 0 -164 -117z" />
<glyph unicode="&#xab;" horiz-adv-x="1040" d="M61 428v45l451 371l31 -23l-187 -370l187 -363l-31 -31zM436 428v45l451 371l31 -23l-187 -370l187 -363l-31 -31z" />
<glyph unicode="&#xac;" horiz-adv-x="1101" d="M41 567v101h1020v-555h-191v454h-829z" />
<glyph unicode="&#xad;" horiz-adv-x="808" d="M102 373v131h605v-131h-605z" />
<glyph unicode="&#xae;" horiz-adv-x="1099" d="M82 1137q0 195 136.5 335t332.5 140q126 0 233.5 -63t170.5 -172.5t63 -239.5t-63.5 -240t-171 -172.5t-232.5 -62.5q-129 0 -237.5 65t-170 174t-61.5 236zM152 1135q0 -166 117.5 -285t281.5 -119q165 0 282 120.5t117 285.5q0 167 -117.5 287t-281.5 120 q-165 0 -282 -120.5t-117 -288.5zM303 874v37h41v473h-41v39h283q80 0 135 -34.5t55 -92.5q0 -44 -33.5 -77t-93.5 -48v-8q47 -11 85 -53.5t38 -91.5v-29q0 -45 7 -61.5t26 -16.5h26v-37h-67q-68 0 -114.5 30.5t-49.5 80.5v57q-3 56 -18 85.5t-37 29.5h-43v-246h76v-37h-275 zM502 1188h39q40 0 57.5 22.5t17.5 85.5q0 53 -15.5 70.5t-51.5 17.5h-47v-196z" />
<glyph unicode="&#xaf;" horiz-adv-x="737" d="M20 1284v176h697v-176h-697z" />
<glyph unicode="&#xb0;" horiz-adv-x="743" d="M68 1249q0 142 88.5 228t218.5 86q135 0 219 -92t84 -226q0 -138 -88 -221.5t-217 -83.5t-217 83.5t-88 225.5zM197 1253q0 -89 49 -145.5t131 -56.5q81 0 127.5 55t46.5 145q0 87 -45.5 143t-128.5 56q-84 0 -132 -54t-48 -143z" />
<glyph unicode="&#xb1;" horiz-adv-x="1183" d="M82 78v110h1020v-110h-1020zM82 831v111h455v496h110v-496h455v-111h-455v-495h-110v495h-455z" />
<glyph unicode="&#xb2;" horiz-adv-x="737" d="M33 940v121l272 196q89 64 120.5 119.5t31.5 128.5q0 99 -44 154t-118 55q-56 0 -100.5 -32t-44.5 -66q0 -25 16 -25q2 0 20 7.5t37 7.5q78 0 78 -84q0 -51 -30 -76t-76 -25q-60 0 -90.5 41t-30.5 97q0 97 91 151.5t216 54.5q57 0 108.5 -12t95 -37t69.5 -68.5t26 -101.5 q0 -136 -164 -231l-321 -187v-8h378q29 0 42.5 7t20.5 33t7 81h37v-301h-647z" />
<glyph unicode="&#xb3;" horiz-adv-x="708" d="M25 1092q0 51 29.5 88t82.5 37q39 0 72 -21t33 -72q0 -29 -13 -50.5t-28 -30.5t-28 -19t-13 -20q0 -19 40 -28t79 -9q151 0 151 194q0 197 -182 197h-88v41h53q104 1 150.5 49.5t46.5 142.5q0 76 -27 103.5t-80 27.5q-90 0 -90 -30q0 -10 11.5 -20.5t24.5 -19.5t24.5 -25 t11.5 -36q0 -41 -34.5 -62.5t-76.5 -21.5q-45 0 -71.5 25.5t-26.5 69.5q0 69 63.5 116t200.5 47t216 -50t79 -136q0 -73 -66 -119.5t-215 -64.5v-9q140 -5 228 -59t88 -156t-104.5 -174.5t-272.5 -72.5q-127 0 -197.5 45t-70.5 123z" />
<glyph unicode="&#xb4;" horiz-adv-x="548" d="M20 1135l248 335q63 86 146 86q55 0 84.5 -27t29.5 -67q0 -64 -98 -133l-280 -194h-130z" />
<glyph unicode="&#xb5;" horiz-adv-x="1255" d="M20 860v62h443v-695q0 -83 23 -118t73 -35q102 0 167 113t65 282v391h-168v62h450v-861h162v-61h-444v162h-9q-37 -84 -128 -136.5t-199 -52.5q-101 0 -174 47h-9q16 -111 39.5 -200.5t38.5 -141t15 -94.5q0 -67 -36.5 -109t-95.5 -42q-57 0 -89.5 40.5t-32.5 120.5 q0 43 17 125.5t34.5 211.5t17.5 284v645h-160z" />
<glyph unicode="&#xb6;" horiz-adv-x="1296" d="M41 1096q0 124 67 228t176 162t232 58h729v-151h-194v-1715h-168v1715h-199v-1715h-168v955q-223 15 -349 145.5t-126 317.5z" />
<glyph unicode="&#xb7;" horiz-adv-x="561" d="M102 520q0 73 52.5 125.5t126.5 52.5q73 0 125.5 -52t52.5 -126t-52.5 -126t-125.5 -52q-74 0 -126.5 52.5t-52.5 125.5z" />
<glyph unicode="&#xb8;" horiz-adv-x="512" d="M20 -446l23 69q37 -22 115 -22q123 0 123 92q0 99 -164 102l80 225h92l-49 -155h39q98 0 155.5 -39t57.5 -109q0 -94 -84 -146t-224 -52q-106 0 -164 35z" />
<glyph unicode="&#xb9;" horiz-adv-x="571" d="M6 940v37h182v735h-182v37h387v-772h170v-37h-557z" />
<glyph unicode="&#xba;" horiz-adv-x="692" d="M20 1251q0 121 96 217.5t228 96.5q134 0 231 -96.5t97 -217.5q0 -123 -97 -219t-231 -96q-132 0 -228 96t-96 219zM236 1251q0 -153 23 -203.5t85 -50.5q43 0 66 20t34 74.5t11 159.5q0 104 -11 158.5t-34 75t-66 20.5q-62 0 -85 -51t-23 -203z" />
<glyph unicode="&#xbb;" horiz-adv-x="1040" d="M123 88l186 363l-186 370l31 23l450 -371v-45l-450 -371zM498 88l186 363l-186 370l30 23l451 -371v-45l-451 -371z" />
<glyph unicode="&#xbc;" horiz-adv-x="1869" d="M152 735v37h182v735h-182v37h387v-772h170v-37h-557zM451 0l839 1542h162l-840 -1542h-161zM975 225v41l416 559h135v-561h151v90h39v-221h-39v92h-151v-188h114v-37h-446v37h127v188h-346zM1030 264h291v387h-8l-283 -379v-8z" />
<glyph unicode="&#xbd;" horiz-adv-x="1869" d="M152 735v37h182v735h-182v37h387v-772h170v-37h-557zM397 0l840 1542h162l-840 -1542h-162zM1069 0v121l272 196q89 64 120.5 119.5t31.5 128.5q0 99 -44 154t-118 55q-56 0 -100.5 -32t-44.5 -66q0 -25 16 -25q2 0 20.5 7.5t37.5 7.5q77 0 77 -84q0 -51 -30 -76t-76 -25 q-60 0 -90.5 40.5t-30.5 96.5q0 97 91 152t216 55q57 0 108.5 -12t95 -37t69.5 -68.5t26 -101.5q0 -136 -164 -231l-321 -187v-8h379q42 0 55.5 20.5t13.5 100.5h37v-301h-647z" />
<glyph unicode="&#xbe;" horiz-adv-x="1869" d="M150 887q0 51 29.5 88t82.5 37q39 0 72 -20.5t33 -71.5q0 -29 -13 -50.5t-28 -31t-28 -19.5t-13 -20q0 -19 39.5 -28t78.5 -9q152 0 152 194q0 197 -182 197h-88v41h53q104 1 150.5 49.5t46.5 142.5q0 76 -27 104t-80 28q-90 0 -90 -31q0 -10 11 -20.5t25 -19.5t25 -25 t11 -36q0 -41 -34 -62t-77 -21q-45 0 -71.5 25t-26.5 69q0 70 63.5 117t200.5 47q136 0 215.5 -50.5t79.5 -136.5q0 -73 -66 -119.5t-215 -64.5v-8q140 -5 228 -59t88 -156t-104.5 -175t-272.5 -73q-127 0 -197.5 45t-70.5 123zM463 0l840 1542h161l-839 -1542h-162z M975 225v41l416 559h135v-561h151v90h39v-221h-39v92h-151v-188h114v-37h-446v37h127v188h-346zM1030 264h291v387h-8l-283 -379v-8z" />
<glyph unicode="&#xbf;" horiz-adv-x="962" d="M82 -264q0 84 28 154t73 118.5t99 90t108 78.5t99 74t73 85.5t28 105.5h61q8 -68 8 -137q0 -92 -20.5 -167.5t-53.5 -126t-73 -92.5t-80 -76t-73 -66t-53.5 -72.5t-20.5 -87.5q0 -89 67 -142t166 -53q76 0 131.5 27.5t55.5 58.5q0 17 -19.5 30.5t-43 24.5t-43 42 t-19.5 78q0 48 41 82t102 34q64 0 105.5 -36t41.5 -103q0 -124 -98 -213.5t-250 -89.5q-197 0 -318.5 107t-121.5 272zM424 768q0 72 53.5 125t126.5 53q72 0 125 -53t53 -125q0 -73 -53 -126.5t-125 -53.5q-74 0 -127 53t-53 127z" />
<glyph unicode="&#xc0;" horiz-adv-x="1464" d="M-31 0v61h193l592 1502h53l545 -1502h143v-61h-711v61h213l-129 357h-497l-142 -357h240v-61h-500zM395 477h451l-211 580h-8zM438 1798q0 39 27 66.5t76 27.5q42 0 75.5 -14.5t92.5 -52.5l329 -213h-129l-362 71q-109 22 -109 115z" />
<glyph unicode="&#xc1;" horiz-adv-x="1464" d="M-31 0v61h193l592 1502h53l545 -1502h143v-61h-711v61h213l-129 357h-497l-142 -357h240v-61h-500zM395 477h451l-211 580h-8zM496 1612l329 213q59 38 92.5 52.5t75.5 14.5q49 0 76 -27.5t27 -66.5q0 -93 -109 -115l-362 -71h-129z" />
<glyph unicode="&#xc2;" horiz-adv-x="1464" d="M-31 0v61h193l592 1502h53l545 -1502h143v-61h-711v61h213l-129 357h-497l-142 -357h240v-61h-500zM362 1614l351 278h127l350 -278h-109l-305 86l-305 -86h-109zM395 477h451l-211 580h-8z" />
<glyph unicode="&#xc3;" horiz-adv-x="1464" d="M-31 0v61h193l592 1502h53l545 -1502h143v-61h-711v61h213l-129 357h-497l-142 -357h240v-61h-500zM379 1612q21 113 96 196.5t187 83.5q58 0 146.5 -41t133.5 -41q69 0 111 24.5t59 57.5h70q-13 -55 -35.5 -102.5t-56.5 -88t-83.5 -64t-109.5 -23.5t-147.5 41t-133.5 41 q-65 0 -110.5 -23t-59.5 -61h-67zM395 477h451l-211 580h-8z" />
<glyph unicode="&#xc4;" horiz-adv-x="1464" d="M-31 0v61h193l592 1502h53l545 -1502h143v-61h-711v61h213l-129 357h-497l-142 -357h240v-61h-500zM395 477h451l-211 580h-8zM449 1757q0 55 39.5 95t95.5 40t95.5 -40t39.5 -95t-39.5 -95t-95.5 -40t-95.5 40t-39.5 95zM838 1757q0 55 40 95t95 40t95 -40t40 -95 t-40 -95t-95 -40t-95 40t-40 95z" />
<glyph unicode="&#xc5;" horiz-adv-x="1464" d="M-31 0v61h193l569 1444q-64 17 -105.5 70.5t-41.5 120.5q0 81 58 138.5t138 57.5q82 0 140.5 -57.5t58.5 -138.5q0 -68 -43.5 -122t-108.5 -69l525 -1444h143v-61h-711v61h213l-129 357h-497l-142 -357h240v-61h-500zM395 477h451l-211 580h-8zM694 1696q0 -34 25.5 -61 t60.5 -27q36 0 62 26t26 62q0 35 -26.5 60.5t-61.5 25.5q-34 0 -60 -25.5t-26 -60.5z" />
<glyph unicode="&#xc6;" horiz-adv-x="2316" d="M20 0v61h189l754 1422h-175v61h1426v-409h-82q-3 147 -93 247.5t-241 100.5h-348v-692q195 1 279.5 65t87.5 201h81v-615h-81q-3 149 -87.5 217.5t-279.5 69.5v-668h348q110 0 193.5 62t126.5 161.5t45 217.5h82v-502h-1313v61h194v412h-600l-219 -412h213v-61h-500z M561 539h565v944h-61z" />
<glyph unicode="&#xc7;" horiz-adv-x="1456" d="M102 762q0 156 56 302t153 256t238.5 176.5t302.5 66.5q102 0 179.5 -28.5t162.5 -92.5l90 102h51v-473h-61q-17 92 -50.5 166.5t-85 132.5t-126.5 89.5t-168 31.5q-66 0 -115 -16.5t-96 -65t-76.5 -130.5t-47 -218t-17.5 -322q0 -168 14.5 -288.5t41 -199t71.5 -124.5 t98.5 -64t128.5 -18q101 0 181.5 31.5t134.5 88t88 125.5t53 154h61v-444h-61l-91 94q-160 -115 -342 -121l-34 -108h38q98 0 155.5 -39t57.5 -109q0 -94 -83.5 -146t-223.5 -52q-106 0 -164 35l23 69q37 -22 115 -22q123 0 123 92q0 99 -164 102l63 182q-145 13 -271.5 82 t-214 174.5t-138 243.5t-50.5 285z" />
<glyph unicode="&#xc8;" horiz-adv-x="1425" d="M41 0v61h195v1422h-195v61h1282v-409h-82q-3 147 -93 247.5t-241 100.5h-348v-692q195 1 279.5 65t87.5 201h82v-615h-82q-3 149 -87.5 217.5t-279.5 69.5v-668h348q110 0 193.5 62t126.5 161.5t45 217.5h82v-502h-1313zM401 1798q0 39 27 66.5t76 27.5q42 0 75.5 -14.5 t92.5 -52.5l329 -213h-129l-362 71q-109 22 -109 115z" />
<glyph unicode="&#xc9;" horiz-adv-x="1425" d="M41 0v61h195v1422h-195v61h1282v-409h-82q-3 147 -93 247.5t-241 100.5h-348v-692q195 1 279.5 65t87.5 201h82v-615h-82q-3 149 -87.5 217.5t-279.5 69.5v-668h348q110 0 193.5 62t126.5 161.5t45 217.5h82v-502h-1313zM422 1612l330 213q59 38 92.5 52.5t75.5 14.5 q48 0 75 -27.5t27 -66.5q0 -93 -109 -115l-362 -71h-129z" />
<glyph unicode="&#xca;" horiz-adv-x="1425" d="M41 0v61h195v1422h-195v61h1282v-409h-82q-3 147 -93 247.5t-241 100.5h-348v-692q195 1 279.5 65t87.5 201h82v-615h-82q-3 149 -87.5 217.5t-279.5 69.5v-668h348q110 0 193.5 62t126.5 161.5t45 217.5h82v-502h-1313zM313 1614l351 278h127l350 -278h-109l-305 86 l-305 -86h-109z" />
<glyph unicode="&#xcb;" horiz-adv-x="1425" d="M41 0v61h195v1422h-195v61h1282v-409h-82q-3 147 -93 247.5t-241 100.5h-348v-692q195 1 279.5 65t87.5 201h82v-615h-82q-3 149 -87.5 217.5t-279.5 69.5v-668h348q110 0 193.5 62t126.5 161.5t45 217.5h82v-502h-1313zM387 1757q0 55 39.5 95t95.5 40t95.5 -40 t39.5 -95t-39.5 -95t-95.5 -40t-95.5 40t-39.5 95zM776 1757q0 55 40 95t95 40q56 0 96 -40t40 -95t-40 -95t-96 -40q-55 0 -95 40t-40 95z" />
<glyph unicode="&#xcc;" horiz-adv-x="794" d="M41 0v61h195v1422h-195v61h719v-61h-201v-1422h201v-61h-719zM100 1798q0 39 27 66.5t76 27.5q42 0 75.5 -14.5t92.5 -52.5l329 -213h-129l-362 71q-109 22 -109 115z" />
<glyph unicode="&#xcd;" horiz-adv-x="794" d="M41 0v61h195v1422h-195v61h719v-61h-201v-1422h201v-61h-719zM102 1612l330 213q59 38 92.5 52.5t75.5 14.5q48 0 75 -27.5t27 -66.5q0 -93 -108 -115l-363 -71h-129z" />
<glyph unicode="&#xce;" horiz-adv-x="794" d="M-12 1614l350 278h127l350 -278h-108l-306 86l-305 -86h-108zM41 0v61h195v1422h-195v61h719v-61h-201v-1422h201v-61h-719z" />
<glyph unicode="&#xcf;" horiz-adv-x="794" d="M41 0v61h195v1422h-195v61h719v-61h-201v-1422h201v-61h-719zM70 1757q0 55 40 95t95 40t95 -40t40 -95t-40 -95t-95 -40t-95 40t-40 95zM459 1757q0 55 39.5 95t95.5 40t95.5 -40t39.5 -95t-39.5 -95t-95.5 -40t-95.5 40t-39.5 95z" />
<glyph unicode="&#xd0;" horiz-adv-x="1634" d="M33 739v97h203v647h-195v61h821q194 0 358.5 -106.5t258.5 -282.5t94 -377q0 -121 -36 -238t-103.5 -213.5t-156.5 -170.5t-202 -115t-233 -41h-801v61h195v678h-203zM559 61h221q92 0 155.5 19t113.5 65t78.5 128.5t42.5 204.5t14 298q0 285 -39 438t-119 211t-227 58 h-240v-647h283v-97h-283v-678z" />
<glyph unicode="&#xd1;" horiz-adv-x="1619" d="M41 0v61h225v1422h-225v61h598l647 -911h8v850h-204v61h499v-61h-205v-1510h-90l-929 1340h-9v-1252h226v-61h-541zM469 1612q21 113 96 196.5t187 83.5q58 0 146.5 -41t133.5 -41q69 0 111 24.5t59 57.5h70q-13 -55 -35.5 -102.5t-56.5 -88t-83.5 -64t-109.5 -23.5 t-147 41t-133 41q-65 0 -110.5 -23t-59.5 -61h-68z" />
<glyph unicode="&#xd2;" d="M82 774q0 124 37.5 243t107 216.5t162.5 172t210 116t243 41.5q157 0 299 -64.5t243 -172t160.5 -252.5t59.5 -300t-59.5 -302t-160.5 -256.5t-243 -176t-299 -66.5t-299 66.5t-242.5 176.5t-159.5 256t-59 302zM471 774q0 -180 13 -304.5t38.5 -208.5t71.5 -131 t103.5 -66t142.5 -19q86 0 145.5 19.5t105 67t71.5 131.5t39 207t13 300t-13 299t-39 205.5t-72 130.5t-105 66.5t-145 19.5t-144.5 -19.5t-103.5 -65.5t-70.5 -129.5t-38 -205t-12.5 -297.5zM582 1798q0 39 27 66.5t75 27.5q42 0 75.5 -14.5t92.5 -52.5l330 -213h-129 l-363 71q-108 22 -108 115z" />
<glyph unicode="&#xd3;" d="M82 774q0 124 37.5 243t107 216.5t162.5 172t210 116t243 41.5q157 0 299 -64.5t243 -172t160.5 -252.5t59.5 -300t-59.5 -302t-160.5 -256.5t-243 -176t-299 -66.5t-299 66.5t-242.5 176.5t-159.5 256t-59 302zM471 774q0 -180 13 -304.5t38.5 -208.5t71.5 -131 t103.5 -66t142.5 -19q86 0 145.5 19.5t105 67t71.5 131.5t39 207t13 300t-13 299t-39 205.5t-72 130.5t-105 66.5t-145 19.5t-144.5 -19.5t-103.5 -65.5t-70.5 -129.5t-38 -205t-12.5 -297.5zM559 1612l330 213q59 38 92.5 52.5t75.5 14.5q48 0 75 -27.5t27 -66.5 q0 -93 -108 -115l-363 -71h-129z" />
<glyph unicode="&#xd4;" d="M82 774q0 124 37.5 243t107 216.5t162.5 172t210 116t243 41.5q157 0 299 -64.5t243 -172t160.5 -252.5t59.5 -300t-59.5 -302t-160.5 -256.5t-243 -176t-299 -66.5t-299 66.5t-242.5 176.5t-159.5 256t-59 302zM426 1614l350 278h127l350 -278h-108l-305 86l-305 -86 h-109zM471 774q0 -180 13 -304.5t38.5 -208.5t71.5 -131t103.5 -66t142.5 -19q86 0 145.5 19.5t105 67t71.5 131.5t39 207t13 300t-13 299t-39 205.5t-72 130.5t-105 66.5t-145 19.5t-144.5 -19.5t-103.5 -65.5t-70.5 -129.5t-38 -205t-12.5 -297.5z" />
<glyph unicode="&#xd5;" d="M82 774q0 124 37.5 243t107 216.5t162.5 172t210 116t243 41.5q157 0 299 -64.5t243 -172t160.5 -252.5t59.5 -300t-59.5 -302t-160.5 -256.5t-243 -176t-299 -66.5t-299 66.5t-242.5 176.5t-159.5 256t-59 302zM444 1612q21 113 96 196.5t187 83.5q58 0 147 -41t134 -41 q69 0 111 24.5t59 57.5h69q-13 -55 -35.5 -102.5t-56 -88t-83 -64t-109.5 -23.5t-147.5 41t-133.5 41q-65 0 -110.5 -23t-59.5 -61h-68zM471 774q0 -180 13 -304.5t38.5 -208.5t71.5 -131t103.5 -66t142.5 -19q86 0 145.5 19.5t105 67t71.5 131.5t39 207t13 300t-13 299 t-39 205.5t-72 130.5t-105 66.5t-145 19.5t-144.5 -19.5t-103.5 -65.5t-70.5 -129.5t-38 -205t-12.5 -297.5z" />
<glyph unicode="&#xd6;" d="M82 774q0 124 37.5 243t107 216.5t162.5 172t210 116t243 41.5q157 0 299 -64.5t243 -172t160.5 -252.5t59.5 -300t-59.5 -302t-160.5 -256.5t-243 -176t-299 -66.5t-299 66.5t-242.5 176.5t-159.5 256t-59 302zM471 774q0 -180 13 -304.5t38.5 -208.5t71.5 -131 t103.5 -66t142.5 -19q86 0 145.5 19.5t105 67t71.5 131.5t39 207t13 300t-13 299t-39 205.5t-72 130.5t-105 66.5t-145 19.5t-144.5 -19.5t-103.5 -65.5t-70.5 -129.5t-38 -205t-12.5 -297.5zM518 1757q0 55 40 95t95 40t95 -40t40 -95t-40 -95t-95 -40t-95 40t-40 95z M907 1757q0 55 39.5 95t95.5 40t96 -40t40 -95t-40 -95t-96 -40t-95.5 40t-39.5 95z" />
<glyph unicode="&#xd7;" horiz-adv-x="1183" d="M125 1079l82 97l383 -385l387 387l90 -88l-387 -388l367 -366l-82 -96l-375 372l-363 -362l-90 88l365 364z" />
<glyph unicode="&#xd8;" d="M82 774q0 124 37.5 243t107 216.5t162.5 172t210 116t243 41.5q210 0 387 -113l127 197h119l-164 -254q136 -112 214.5 -275.5t78.5 -343.5q0 -155 -59.5 -302t-160.5 -256.5t-243 -176t-299 -66.5q-208 0 -381 109l-123 -191h-119l162 250q-139 113 -219 281t-80 352z M471 774q0 -290 33 -442l641 989q-43 94 -115.5 132t-189.5 38q-86 0 -144.5 -19.5t-103.5 -65.5t-70.5 -129.5t-38 -205t-12.5 -297.5zM543 209q41 -90 112.5 -127t184.5 -37q86 0 145.5 19.5t105 67t71.5 131.5t39 207t13 300q0 281 -32 426z" />
<glyph unicode="&#xd9;" horiz-adv-x="1585" d="M31 1483v61h739v-61h-217v-1073q0 -355 350 -355q175 0 272 90t97 265v1073h-195v61h488v-61h-215v-1084q0 -219 -130 -322.5t-395 -103.5q-277 0 -436.5 107t-159.5 317v1086h-198zM631 1798q0 39 27 66.5t75 27.5q42 0 75.5 -14.5t92.5 -52.5l330 -213h-129l-363 71 q-108 22 -108 115z" />
<glyph unicode="&#xda;" horiz-adv-x="1585" d="M31 1483v61h739v-61h-217v-1073q0 -355 350 -355q175 0 272 90t97 265v1073h-195v61h488v-61h-215v-1084q0 -219 -130 -322.5t-395 -103.5q-277 0 -436.5 107t-159.5 317v1086h-198zM618 1612l330 213q59 38 92.5 52.5t75.5 14.5q49 0 76 -27.5t27 -66.5q0 -93 -109 -115 l-362 -71h-130z" />
<glyph unicode="&#xdb;" horiz-adv-x="1585" d="M31 1483v61h739v-61h-217v-1073q0 -355 350 -355q175 0 272 90t97 265v1073h-195v61h488v-61h-215v-1084q0 -219 -130 -322.5t-395 -103.5q-277 0 -436.5 107t-159.5 317v1086h-198zM504 1614l350 278h127l350 -278h-108l-305 86l-306 -86h-108z" />
<glyph unicode="&#xdc;" horiz-adv-x="1585" d="M31 1483v61h739v-61h-217v-1073q0 -355 350 -355q175 0 272 90t97 265v1073h-195v61h488v-61h-215v-1084q0 -219 -130 -322.5t-395 -103.5q-277 0 -436.5 107t-159.5 317v1086h-198zM588 1757q0 55 40 95t95 40t95 -40t40 -95t-40 -95t-95 -40t-95 40t-40 95zM977 1757 q0 55 39.5 95t95.5 40t95.5 -40t39.5 -95t-39.5 -95t-95.5 -40t-95.5 40t-39.5 95z" />
<glyph unicode="&#xdd;" horiz-adv-x="1568" d="M20 1483v61h721v-61h-176l385 -658h8l330 658h-221v61h481v-61h-182l-393 -783v-639h241v-61h-800v61h235v613l-489 809h-140zM696 1612l330 213q59 38 92.5 52.5t75.5 14.5q48 0 75 -27.5t27 -66.5q0 -93 -108 -115l-363 -71h-129z" />
<glyph unicode="&#xde;" horiz-adv-x="1433" d="M41 0v61h195v1422h-195v61h760v-61h-242v-269h342q145 0 264.5 -52.5t188.5 -147.5t69 -213q0 -194 -190 -312t-516 -118h-158v-310h242v-61h-760zM559 432h158q89 0 145.5 15.5t97 57t57.5 114.5t17 188q0 107 -14.5 176t-46 106t-72 50.5t-102.5 13.5h-240v-721z" />
<glyph unicode="&#xdf;" horiz-adv-x="1370" d="M41 0v61h195v1065q0 212 125 324.5t366 112.5q217 0 337 -89t120 -255q0 -251 -279 -320v-8q159 -12 265 -132t106 -306q0 -105 -36 -194t-95.5 -147.5t-135.5 -91t-157 -32.5q-104 0 -161.5 49.5t-57.5 122.5q0 53 29.5 84.5t80.5 31.5q41 0 69 -23t28 -65 q0 -28 -14.5 -48t-29 -33t-14.5 -25q0 -16 15.5 -24.5t33.5 -8.5q24 0 44.5 18t40 59t31 122t11.5 194q0 160 -26 252t-73.5 127t-127.5 35h-76v66h78q88 0 130 67.5t42 237.5q0 111 -20.5 171.5t-53.5 79.5t-90 19q-105 0 -143.5 -55.5t-38.5 -181.5v-1260h-518z" />
<glyph unicode="&#xe0;" horiz-adv-x="1107" d="M86 207q0 147 155 232t416 85v240q0 53 -38.5 84t-102.5 31q-55 0 -92 -21t-37 -53q0 -16 21.5 -47t21.5 -62q0 -55 -42 -95t-101 -40q-60 0 -98.5 40.5t-38.5 100.5q0 105 117 174.5t296 69.5q165 0 271 -59t106 -152v-596q0 -19 13 -33t34 -14q17 0 36 14t54 54l41 -47 q-59 -71 -120.5 -104.5t-135.5 -33.5q-82 0 -131 37.5t-65 104.5h-9q-40 -59 -118.5 -100.5t-176.5 -41.5q-122 0 -199 64t-77 168zM219 1462q0 40 30 67t85 27q82 0 145 -86l248 -335h-129l-281 194q-98 69 -98 133zM383 242q0 -72 30.5 -113t86.5 -41q67 0 112 58.5 t45 152.5v162q-133 0 -203.5 -55.5t-70.5 -163.5z" />
<glyph unicode="&#xe1;" horiz-adv-x="1107" d="M86 207q0 147 155 232t416 85v240q0 53 -38.5 84t-102.5 31q-55 0 -92 -21t-37 -53q0 -16 21.5 -47t21.5 -62q0 -55 -42 -95t-101 -40q-60 0 -98.5 40.5t-38.5 100.5q0 105 117 174.5t296 69.5q165 0 271 -59t106 -152v-596q0 -19 13 -33t34 -14q17 0 36 14t54 54l41 -47 q-59 -71 -120.5 -104.5t-135.5 -33.5q-82 0 -131 37.5t-65 104.5h-9q-40 -59 -118.5 -100.5t-176.5 -41.5q-122 0 -199 64t-77 168zM383 242q0 -72 30.5 -113t86.5 -41q67 0 112 58.5t45 152.5v162q-133 0 -203.5 -55.5t-70.5 -163.5zM440 1135l248 335q63 86 146 86 q55 0 84.5 -27t29.5 -67q0 -64 -98 -133l-281 -194h-129z" />
<glyph unicode="&#xe2;" horiz-adv-x="1107" d="M86 207q0 147 155 232t416 85v240q0 53 -38.5 84t-102.5 31q-55 0 -92 -21t-37 -53q0 -16 21.5 -47t21.5 -62q0 -55 -42 -95t-101 -40q-60 0 -98.5 40.5t-38.5 100.5q0 105 117 174.5t296 69.5q165 0 271 -59t106 -152v-596q0 -19 13 -33t34 -14q17 0 36 14t54 54l41 -47 q-59 -71 -120.5 -104.5t-135.5 -33.5q-82 0 -131 37.5t-65 104.5h-9q-40 -59 -118.5 -100.5t-176.5 -41.5q-122 0 -199 64t-77 168zM186 1135l310 409h127l309 -409h-88l-285 176l-285 -176h-88zM383 242q0 -72 30.5 -113t86.5 -41q67 0 112 58.5t45 152.5v162 q-133 0 -203.5 -55.5t-70.5 -163.5z" />
<glyph unicode="&#xe3;" horiz-adv-x="1107" d="M86 207q0 147 155 232t416 85v240q0 53 -38.5 84t-102.5 31q-55 0 -92 -21t-37 -53q0 -16 21.5 -47t21.5 -62q0 -55 -42 -95t-101 -40q-60 0 -98.5 40.5t-38.5 100.5q0 105 117 174.5t296 69.5q165 0 271 -59t106 -152v-596q0 -19 13 -33t34 -14q17 0 36 14t54 54l41 -47 q-59 -71 -120.5 -104.5t-135.5 -33.5q-82 0 -131 37.5t-65 104.5h-9q-40 -59 -118.5 -100.5t-176.5 -41.5q-122 0 -199 64t-77 168zM178 1194q13 77 48 142.5t97 110t138 44.5q47 0 97 -24.5t97 -49t86 -24.5q69 0 111 31.5t59 72.5h70q-18 -81 -51 -145.5t-94 -110 t-140 -45.5q-48 0 -98 24.5t-96.5 49t-85.5 24.5q-64 0 -110 -28t-60 -72h-68zM383 242q0 -72 30.5 -113t86.5 -41q67 0 112 58.5t45 152.5v162q-133 0 -203.5 -55.5t-70.5 -163.5z" />
<glyph unicode="&#xe4;" horiz-adv-x="1107" d="M86 207q0 147 155 232t416 85v240q0 53 -38.5 84t-102.5 31q-55 0 -92 -21t-37 -53q0 -16 21.5 -47t21.5 -62q0 -55 -42 -95t-101 -40q-60 0 -98.5 40.5t-38.5 100.5q0 105 117 174.5t296 69.5q165 0 271 -59t106 -152v-596q0 -19 13 -33t34 -14q17 0 36 14t54 54l41 -47 q-59 -71 -120.5 -104.5t-135.5 -33.5q-82 0 -131 37.5t-65 104.5h-9q-40 -59 -118.5 -100.5t-176.5 -41.5q-122 0 -199 64t-77 168zM219 1366q0 56 39.5 95.5t95.5 39.5t95.5 -39.5t39.5 -95.5t-39.5 -95.5t-95.5 -39.5t-95.5 39.5t-39.5 95.5zM383 242q0 -72 30.5 -113 t86.5 -41q67 0 112 58.5t45 152.5v162q-133 0 -203.5 -55.5t-70.5 -163.5zM608 1366q0 56 40 95.5t95 39.5q56 0 96 -40t40 -95t-40 -95t-96 -40q-55 0 -95 39.5t-40 95.5z" />
<glyph unicode="&#xe5;" horiz-adv-x="1107" d="M86 207q0 147 155 232t416 85v240q0 53 -38.5 84t-102.5 31q-55 0 -92 -21t-37 -53q0 -16 21.5 -47t21.5 -62q0 -55 -42 -95t-101 -40q-60 0 -98.5 40.5t-38.5 100.5q0 105 117 174.5t296 69.5q165 0 271 -59t106 -152v-596q0 -19 13 -33t34 -14q17 0 36 14t54 54l41 -47 q-59 -71 -120.5 -104.5t-135.5 -33.5q-82 0 -131 37.5t-65 104.5h-9q-40 -59 -118.5 -100.5t-176.5 -41.5q-122 0 -199 64t-77 168zM360 1356q0 85 62 146t147 61t147 -60.5t62 -146.5t-61.5 -147.5t-147.5 -61.5q-85 0 -147 61.5t-62 147.5zM383 242q0 -72 30.5 -113 t86.5 -41q67 0 112 58.5t45 152.5v162q-133 0 -203.5 -55.5t-70.5 -163.5zM477 1356q0 -37 27 -65.5t65 -28.5t65.5 28t27.5 66q0 36 -28 63t-65 27t-64.5 -26.5t-27.5 -63.5z" />
<glyph unicode="&#xe6;" horiz-adv-x="1630" d="M86 207q0 147 155 232t416 85v240q0 53 -38.5 84t-102.5 31q-55 0 -92 -21t-37 -53q0 -16 21.5 -47t21.5 -62q0 -55 -42 -95t-101 -40q-60 0 -98.5 40.5t-38.5 100.5q0 105 117 174.5t296 69.5q197 0 309 -84q115 84 261 84q176 0 297.5 -111.5t121.5 -293.5v-23h-612 v-63q0 -168 19.5 -255t62 -121t123.5 -34q237 0 346 238h68q-40 -137 -155 -223.5t-261 -86.5q-131 0 -238 72.5t-166 190.5h-8q-37 -127 -135 -194t-227 -67q-127 0 -205 64t-78 168zM383 242q0 -72 30.5 -113t86.5 -41q67 0 112 58.5t45 152.5v162q-133 0 -203.5 -55.5 t-70.5 -163.5zM942 580h322v125q0 176 -148 176q-85 0 -125 -67.5t-49 -233.5z" />
<glyph unicode="&#xe7;" horiz-adv-x="1064" d="M92 463q0 90 38.5 177.5t104.5 155t162 109t203 41.5q149 0 255 -72t106 -180q0 -70 -45.5 -110.5t-116.5 -40.5q-66 0 -107 37t-41 98q0 34 15 58t30 42.5t15 38.5q0 30 -27.5 47t-75.5 17q-38 0 -66.5 -10.5t-54.5 -40t-42 -79.5t-25.5 -130.5t-9.5 -190.5 q0 -154 20 -237t63.5 -116.5t122.5 -33.5q111 0 188 61.5t132 198.5h68q-41 -145 -138 -233t-239 -95l-35 -110h39q98 0 155.5 -39t57.5 -109q0 -94 -83.5 -146t-223.5 -52q-106 0 -164 35l22 69q37 -22 115 -22q123 0 123 92q0 99 -164 102l63 182q-122 16 -224 88 t-159 178t-57 220z" />
<glyph unicode="&#xe8;" horiz-adv-x="1099" d="M92 467q0 90 36 175.5t99 153t158.5 109t206.5 41.5q187 0 308.5 -110.5t121.5 -294.5v-23h-612v-63q0 -127 9.5 -204.5t34.5 -124.5t62 -64t98 -17q238 0 347 238h67q-43 -142 -157 -226t-267 -84q-105 0 -200.5 41.5t-163.5 109.5t-108 158t-40 185zM233 1462 q0 40 30 67t85 27q83 0 146 -86l247 -335h-129l-280 194q-99 70 -99 133zM412 580h321v125q0 176 -147 176q-85 0 -125 -67.5t-49 -233.5z" />
<glyph unicode="&#xe9;" horiz-adv-x="1099" d="M92 467q0 90 36 175.5t99 153t158.5 109t206.5 41.5q187 0 308.5 -110.5t121.5 -294.5v-23h-612v-63q0 -127 9.5 -204.5t34.5 -124.5t62 -64t98 -17q238 0 347 238h67q-43 -142 -157 -226t-267 -84q-105 0 -200.5 41.5t-163.5 109.5t-108 158t-40 185zM412 580h321v125 q0 176 -147 176q-85 0 -125 -67.5t-49 -233.5zM412 1135l247 335q63 86 146 86q55 0 85 -27t30 -67q0 -63 -99 -133l-280 -194h-129z" />
<glyph unicode="&#xea;" horiz-adv-x="1099" d="M92 467q0 90 36 175.5t99 153t158.5 109t206.5 41.5q187 0 308.5 -110.5t121.5 -294.5v-23h-612v-63q0 -127 9.5 -204.5t34.5 -124.5t62 -64t98 -17q238 0 347 238h67q-43 -142 -157 -226t-267 -84q-105 0 -200.5 41.5t-163.5 109.5t-108 158t-40 185zM215 1135l309 409 h127l310 -409h-89l-284 176l-285 -176h-88zM412 580h321v125q0 176 -147 176q-85 0 -125 -67.5t-49 -233.5z" />
<glyph unicode="&#xeb;" horiz-adv-x="1099" d="M92 467q0 90 36 175.5t99 153t158.5 109t206.5 41.5q187 0 308.5 -110.5t121.5 -294.5v-23h-612v-63q0 -127 9.5 -204.5t34.5 -124.5t62 -64t98 -17q238 0 347 238h67q-43 -142 -157 -226t-267 -84q-105 0 -200.5 41.5t-163.5 109.5t-108 158t-40 185zM268 1366 q0 56 40 95.5t95 39.5q56 0 96 -40t40 -95t-40 -95t-96 -40q-55 0 -95 39.5t-40 95.5zM412 580h321v125q0 176 -147 176q-85 0 -125 -67.5t-49 -233.5zM657 1366q0 55 40 95t96 40q55 0 95 -39.5t40 -95.5t-40 -95.5t-95 -39.5q-56 0 -96 40t-40 95z" />
<glyph unicode="&#xec;" horiz-adv-x="653" d="M-68 1462q0 40 30 67t85 27q83 0 146 -86l247 -335h-129l-280 194q-99 70 -99 133zM41 0v61h166v799h-166v62h448v-861h134v-61h-582z" />
<glyph unicode="&#xed;" horiz-adv-x="653" d="M41 0v61h166v799h-166v62h448v-861h134v-61h-582zM250 1135l248 335q63 86 145 86q55 0 85 -27t30 -67q0 -63 -99 -133l-280 -194h-129z" />
<glyph unicode="&#xee;" horiz-adv-x="653" d="M-43 1135l309 409h127l309 -409h-88l-284 176l-285 -176h-88zM41 0v61h166v799h-166v62h448v-861h134v-61h-582z" />
<glyph unicode="&#xef;" horiz-adv-x="653" d="M-10 1366q0 56 40 95.5t95 39.5t95 -39.5t40 -95.5t-40 -95.5t-95 -39.5t-95 39.5t-40 95.5zM41 0v61h166v799h-166v62h448v-861h134v-61h-582zM379 1366q0 56 39.5 95.5t95.5 39.5t95.5 -39.5t39.5 -95.5t-39.5 -95.5t-95.5 -39.5t-95.5 39.5t-39.5 95.5z" />
<glyph unicode="&#xf0;" horiz-adv-x="1417" d="M133 481q0 121 72 221.5t188.5 155.5t249.5 55q141 0 242 -69l6 2q-12 191 -90 342l-256 -109l-45 88l245 105q-114 145 -284 172l20 59q227 -9 430 -162l293 123l43 -88l-252 -106q129 -126 204 -297t75 -357q0 -145 -46.5 -266.5t-125.5 -202.5t-184.5 -125.5 t-223.5 -44.5q-149 0 -278 66t-206 182.5t-77 255.5zM492 444q0 -218 49 -306.5t170 -88.5t170 90.5t49 317.5q0 164 -21 250q-73 124 -217 124q-37 0 -65 -9t-54.5 -34.5t-43.5 -68t-27 -112t-10 -163.5z" />
<glyph unicode="&#xf1;" horiz-adv-x="1257" d="M41 0v61h166v799h-166v62h448v-170h9q85 194 313 194q130 0 213.5 -64t83.5 -159v-662h129v-61h-551v61h139v693q0 50 -24 76t-68 26q-101 0 -172.5 -117t-71.5 -288v-390h134v-61h-582zM266 1194q13 77 48 142.5t97 110t138 44.5q47 0 97 -24.5t97 -49t86 -24.5 q69 0 111 31.5t59 72.5h70q-18 -81 -51 -145.5t-94 -110t-140 -45.5q-48 0 -98 24.5t-96.5 49t-85.5 24.5q-64 0 -110 -28t-60 -72h-68z" />
<glyph unicode="&#xf2;" horiz-adv-x="1206" d="M92 459q0 212 147.5 349.5t362.5 137.5q141 0 257.5 -61t185.5 -173.5t69 -252.5t-69 -252t-185.5 -173t-257.5 -61q-215 0 -362.5 137t-147.5 349zM305 1462q0 40 30 67t85 27q82 0 145 -86l248 -335h-129l-281 194q-98 69 -98 133zM410 459q0 -171 19 -259.5 t58.5 -121.5t114.5 -33t115 32.5t60 122t20 259.5t-20 259.5t-60 122.5t-115 33t-114.5 -33t-58.5 -122t-19 -260z" />
<glyph unicode="&#xf3;" horiz-adv-x="1206" d="M92 459q0 212 147.5 349.5t362.5 137.5q141 0 257.5 -61t185.5 -173.5t69 -252.5t-69 -252t-185.5 -173t-257.5 -61q-215 0 -362.5 137t-147.5 349zM410 459q0 -171 19 -259.5t58.5 -121.5t114.5 -33t115 32.5t60 122t20 259.5t-20 259.5t-60 122.5t-115 33t-114.5 -33 t-58.5 -122t-19 -260zM426 1135l248 335q63 86 145 86q55 0 85 -27t30 -67q0 -64 -98 -133l-281 -194h-129z" />
<glyph unicode="&#xf4;" horiz-adv-x="1206" d="M92 459q0 212 147.5 349.5t362.5 137.5q141 0 257.5 -61t185.5 -173.5t69 -252.5t-69 -252t-185.5 -173t-257.5 -61q-215 0 -362.5 137t-147.5 349zM248 1135l309 409h127l309 -409h-88l-284 176l-285 -176h-88zM410 459q0 -171 19 -259.5t58.5 -121.5t114.5 -33 t115 32.5t60 122t20 259.5t-20 259.5t-60 122.5t-115 33t-114.5 -33t-58.5 -122t-19 -260z" />
<glyph unicode="&#xf5;" horiz-adv-x="1206" d="M92 459q0 212 147.5 349.5t362.5 137.5q141 0 257.5 -61t185.5 -173.5t69 -252.5t-69 -252t-185.5 -173t-257.5 -61q-215 0 -362.5 137t-147.5 349zM221 1194q13 77 48 142.5t97 110t138 44.5q47 0 97 -24.5t97 -49t86 -24.5q69 0 111 31.5t59 72.5h70 q-18 -81 -51 -145.5t-94 -110t-140 -45.5q-48 0 -98 24.5t-96.5 49t-85.5 24.5q-64 0 -110 -28t-60 -72h-68zM410 459q0 -171 19 -259.5t58.5 -121.5t114.5 -33t115 32.5t60 122t20 259.5t-20 259.5t-60 122.5t-115 33t-114.5 -33t-58.5 -122t-19 -260z" />
<glyph unicode="&#xf6;" horiz-adv-x="1206" d="M92 459q0 212 147.5 349.5t362.5 137.5q141 0 257.5 -61t185.5 -173.5t69 -252.5t-69 -252t-185.5 -173t-257.5 -61q-215 0 -362.5 137t-147.5 349zM287 1366q0 56 39.5 95.5t95.5 39.5t95.5 -39.5t39.5 -95.5t-39.5 -95.5t-95.5 -39.5t-95.5 39.5t-39.5 95.5zM410 459 q0 -171 19 -259.5t58.5 -121.5t114.5 -33t115 32.5t60 122t20 259.5t-20 259.5t-60 122.5t-115 33t-114.5 -33t-58.5 -122t-19 -260zM676 1366q0 56 40 95.5t95 39.5t95 -39.5t40 -95.5t-40 -95.5t-95 -39.5t-95 39.5t-40 95.5z" />
<glyph unicode="&#xf7;" horiz-adv-x="1183" d="M82 647v111h1020v-111h-1020zM444 291q0 65 47 111.5t111 46.5t111 -46.5t47 -111.5t-47 -111.5t-111 -46.5t-111 46.5t-47 111.5zM444 1114q0 64 47 111t111 47t111 -47t47 -111t-47 -111t-111 -47t-111 47t-47 111z" />
<glyph unicode="&#xf8;" horiz-adv-x="1206" d="M92 459q0 212 147.5 349.5t362.5 137.5q151 0 277 -74l94 117h119l-138 -172q75 -66 117.5 -158t42.5 -200q0 -140 -69 -252t-185.5 -173t-257.5 -61q-140 0 -266 66l-119 -148h-119l160 201q-79 66 -122.5 160t-43.5 207zM410 459q0 -99 6 -170l356 448q-20 77 -60 107 t-110 30q-75 0 -114.5 -33t-58.5 -122t-19 -260zM436 166q19 -68 58.5 -94.5t107.5 -26.5q75 0 115 32.5t60 122t20 259.5q0 85 -6 153z" />
<glyph unicode="&#xf9;" horiz-adv-x="1255" d="M20 860v62h443v-695q0 -83 23 -118t73 -35q100 0 166 108.5t66 270.5v407h-168v62h450v-861h162v-61h-444v162h-9q-37 -84 -128 -136.5t-199 -52.5q-123 0 -199 66t-76 162v659h-160zM211 1462q0 40 30 67t85 27q82 0 145 -86l248 -335h-129l-281 194q-98 69 -98 133z " />
<glyph unicode="&#xfa;" horiz-adv-x="1255" d="M20 860v62h443v-695q0 -83 23 -118t73 -35q100 0 166 108.5t66 270.5v407h-168v62h450v-861h162v-61h-444v162h-9q-37 -84 -128 -136.5t-199 -52.5q-123 0 -199 66t-76 162v659h-160zM469 1135l248 335q63 86 145 86q55 0 85 -27t30 -67q0 -64 -98 -133l-281 -194h-129z " />
<glyph unicode="&#xfb;" horiz-adv-x="1255" d="M20 860v62h443v-695q0 -83 23 -118t73 -35q100 0 166 108.5t66 270.5v407h-168v62h450v-861h162v-61h-444v162h-9q-37 -84 -128 -136.5t-199 -52.5q-123 0 -199 66t-76 162v659h-160zM252 1135l309 409h127l309 -409h-88l-284 176l-285 -176h-88z" />
<glyph unicode="&#xfc;" horiz-adv-x="1255" d="M20 860v62h443v-695q0 -83 23 -118t73 -35q100 0 166 108.5t66 270.5v407h-168v62h450v-861h162v-61h-444v162h-9q-37 -84 -128 -136.5t-199 -52.5q-123 0 -199 66t-76 162v659h-160zM295 1366q0 56 39.5 95.5t95.5 39.5t95.5 -39.5t39.5 -95.5t-39.5 -95.5t-95.5 -39.5 t-95.5 39.5t-39.5 95.5zM684 1366q0 56 40 95.5t95 39.5t95 -39.5t40 -95.5t-40 -95.5t-95 -39.5t-95 39.5t-40 95.5z" />
<glyph unicode="&#xfd;" horiz-adv-x="1026" d="M-31 860v62h596v-62h-164l226 -500h8l203 500h-150v62h359v-62h-125l-551 -1317q-49 -117 -104.5 -161t-123.5 -44q-82 0 -119.5 44.5t-37.5 101.5q0 56 35 91.5t90 35.5q31 0 55.5 -13t37 -28t29.5 -28t35 -13q17 0 28 11.5t23 39.5l173 426l-414 854h-109zM481 1135 l248 335q63 86 145 86q55 0 85 -27t30 -67q0 -64 -98 -133l-281 -194h-129z" />
<glyph unicode="&#xfe;" horiz-adv-x="1290" d="M41 1483v61h448v-741h9q35 64 108 103.5t166 39.5q174 0 300 -136.5t126 -348.5t-127 -349t-301 -137q-92 0 -164.5 40t-107.5 104h-9v-701h187v-61h-623v61h154v2065h-166zM489 430q0 -185 65 -280t171 -95q56 0 88.5 31.5t50 120.5t17.5 250q0 164 -18.5 254.5 t-51 122.5t-88.5 32q-104 0 -167.5 -91t-66.5 -265v-80z" />
<glyph unicode="&#xff;" horiz-adv-x="1026" d="M-31 860v62h596v-62h-164l226 -500h8l203 500h-150v62h359v-62h-125l-551 -1317q-49 -117 -104.5 -161t-123.5 -44q-82 0 -119.5 44.5t-37.5 101.5q0 56 35 91.5t90 35.5q31 0 55.5 -13t37 -28t29.5 -28t35 -13q17 0 28 11.5t23 39.5l173 426l-414 854h-109zM182 1366 q0 56 40 95.5t95 39.5q56 0 96 -40t40 -95t-40 -95t-96 -40q-55 0 -95 39.5t-40 95.5zM571 1366q0 55 40 95t96 40q55 0 95 -39.5t40 -95.5t-40 -95.5t-95 -39.5q-56 0 -96 40t-40 95z" />
<glyph unicode="&#x152;" horiz-adv-x="2414" d="M82 774q0 122 37.5 238t107 211.5t162.5 168t210 112.5t243 40h1470v-409h-82q-3 147 -93 247.5t-241 100.5h-348v-692q195 1 279.5 65t87.5 201h82v-615h-82q-3 149 -87.5 217.5t-279.5 69.5v-668h348q110 0 193.5 62t126.5 161.5t45 217.5h82v-502h-1497 q-158 0 -301 64.5t-243.5 171t-160 248t-59.5 290.5zM471 774q0 -173 13 -292.5t38.5 -200.5t71.5 -126.5t103.5 -64t142.5 -18.5q86 0 145.5 19t105 64.5t71.5 126.5t39 199.5t13 288.5q0 172 -13 291t-39 201t-72 127.5t-105 64.5t-145 19t-144.5 -19t-103.5 -64 t-70.5 -126t-38 -199.5t-12.5 -290.5z" />
<glyph unicode="&#x153;" horiz-adv-x="1804" d="M92 459q0 212 147.5 349.5t362.5 137.5q208 0 352 -131q141 131 342 131q187 0 308.5 -110.5t121.5 -294.5v-23h-612v-63q0 -168 19.5 -255t62 -120t123.5 -33q237 0 346 236h68q-43 -142 -157 -225t-267 -83q-200 0 -346 136q-70 -65 -163 -100.5t-198 -35.5 q-141 0 -257 60.5t-184.5 172t-68.5 251.5zM410 459q0 -170 19 -258.5t58.5 -121t114.5 -32.5t115 32t60 121t20 259t-20 259.5t-60 122.5t-115 33t-114.5 -33t-58.5 -122t-19 -260zM1116 580h322v125q0 176 -148 176q-85 0 -125 -67.5t-49 -233.5z" />
<glyph unicode="&#x178;" horiz-adv-x="1568" d="M20 1483v61h721v-61h-176l385 -658h8l330 658h-221v61h481v-61h-182l-393 -783v-639h241v-61h-800v61h235v613l-489 809h-140zM586 1757q0 55 40 95t95 40t95 -40t40 -95t-40 -95t-95 -40t-95 40t-40 95zM975 1757q0 55 39.5 95t95.5 40t95.5 -40t39.5 -95t-39.5 -95 t-95.5 -40t-95.5 40t-39.5 95z" />
<glyph unicode="&#x2c6;" horiz-adv-x="786" d="M20 1135l310 409h127l309 -409h-88l-285 176l-284 -176h-89z" />
<glyph unicode="&#x2dc;" horiz-adv-x="843" d="M20 1194q13 77 48 142.5t97 110t138 44.5q47 0 97.5 -24.5t97.5 -49t86 -24.5q69 0 111 31.5t59 72.5h69q-13 -60 -35.5 -111t-56 -95t-83 -69.5t-109.5 -25.5q-39 0 -79 15.5t-68.5 33.5t-65 33.5t-68.5 15.5q-64 0 -110 -28t-60 -72h-68z" />
<glyph unicode="&#x2000;" horiz-adv-x="946" />
<glyph unicode="&#x2001;" horiz-adv-x="1892" />
<glyph unicode="&#x2002;" horiz-adv-x="946" />
<glyph unicode="&#x2003;" horiz-adv-x="1892" />
<glyph unicode="&#x2004;" horiz-adv-x="630" />
<glyph unicode="&#x2005;" horiz-adv-x="473" />
<glyph unicode="&#x2006;" horiz-adv-x="315" />
<glyph unicode="&#x2007;" horiz-adv-x="315" />
<glyph unicode="&#x2008;" horiz-adv-x="236" />
<glyph unicode="&#x2009;" horiz-adv-x="378" />
<glyph unicode="&#x200a;" horiz-adv-x="105" />
<glyph unicode="&#x2010;" horiz-adv-x="808" d="M102 373v131h605v-131h-605z" />
<glyph unicode="&#x2011;" horiz-adv-x="808" d="M102 373v131h605v-131h-605z" />
<glyph unicode="&#x2012;" horiz-adv-x="808" d="M102 373v131h605v-131h-605z" />
<glyph unicode="&#x2013;" horiz-adv-x="1196" d="M0 393v111h1196v-111h-1196z" />
<glyph unicode="&#x2014;" horiz-adv-x="1792" d="M0 393v111h1792v-111h-1792z" />
<glyph unicode="&#x2018;" horiz-adv-x="630" d="M102 1137q0 263 297 446l35 -43q-121 -93 -176 -178t-55 -182q0 -62 22 -62q10 0 24 11.5t28 25.5t41.5 25.5t60.5 11.5q72 0 110.5 -48t38.5 -116q0 -81 -51.5 -134.5t-136.5 -53.5q-107 0 -172.5 85t-65.5 212z" />
<glyph unicode="&#x2019;" horiz-adv-x="630" d="M102 1374q0 81 52 135t137 54q107 0 172 -85t65 -212q0 -264 -297 -447l-34 43q121 93 176 178.5t55 182.5q0 61 -22 61q-10 0 -24 -11.5t-28 -25.5t-41.5 -25.5t-60.5 -11.5q-72 0 -111 48t-39 116z" />
<glyph unicode="&#x201a;" horiz-adv-x="630" d="M102 205q0 81 52 134.5t137 53.5q107 0 172 -85t65 -212q0 -263 -297 -446l-34 43q121 93 176 178t55 182q0 62 -22 62q-10 0 -24 -11.5t-28 -25.5t-41.5 -25.5t-60.5 -11.5q-72 0 -111 48t-39 116z" />
<glyph unicode="&#x201c;" horiz-adv-x="1148" d="M102 1137q0 263 297 446l35 -43q-121 -93 -176 -178t-55 -182q0 -62 22 -62q10 0 24 11.5t28 25.5t41.5 25.5t60.5 11.5q72 0 110.5 -48t38.5 -116q0 -81 -51.5 -134.5t-136.5 -53.5q-107 0 -172.5 85t-65.5 212zM621 1137q0 263 297 446l34 -43q-121 -93 -176 -178 t-55 -182q0 -62 22 -62q10 0 24 11.5t28 25.5t41.5 25.5t60.5 11.5q72 0 111 -48t39 -116q0 -81 -52 -134.5t-137 -53.5q-107 0 -172 85t-65 212z" />
<glyph unicode="&#x201d;" horiz-adv-x="1148" d="M102 1395q0 81 52 134.5t137 53.5q107 0 172 -85t65 -212q0 -263 -297 -446l-34 43q121 93 176 178t55 182q0 62 -22 62q-10 0 -24 -11.5t-28 -25.5t-41.5 -25.5t-60.5 -11.5q-72 0 -111 48t-39 116zM621 1395q0 81 51.5 134.5t136.5 53.5q107 0 172.5 -85t65.5 -212 q0 -263 -297 -446l-35 43q121 93 176 178t55 182q0 62 -22 62q-10 0 -24 -11.5t-28 -25.5t-41.5 -25.5t-60.5 -11.5q-72 0 -110.5 48t-38.5 116z" />
<glyph unicode="&#x201e;" horiz-adv-x="1148" d="M102 205q0 81 52 134.5t137 53.5q107 0 172 -85t65 -212q0 -263 -297 -446l-34 43q121 93 176 178t55 182q0 62 -22 62q-10 0 -24 -11.5t-28 -25.5t-41.5 -25.5t-60.5 -11.5q-72 0 -111 48t-39 116zM621 205q0 81 51.5 134.5t136.5 53.5q107 0 172.5 -85t65.5 -212 q0 -263 -297 -446l-35 43q121 93 176 178t55 182q0 62 -22 62q-10 0 -24 -11.5t-28 -25.5t-41.5 -25.5t-60.5 -11.5q-72 0 -110.5 48t-38.5 116z" />
<glyph unicode="&#x2022;" horiz-adv-x="839" d="M184 778q0 99 65.5 167.5t170.5 68.5t170 -68.5t65 -167.5t-65 -167t-170 -68t-170.5 68t-65.5 167z" />
<glyph unicode="&#x2026;" horiz-adv-x="1683" d="M102 152q0 73 52.5 125.5t126.5 52.5q73 0 125.5 -52t52.5 -126t-52.5 -126.5t-125.5 -52.5t-126 52.5t-53 126.5zM664 152q0 74 52 126t126 52t126 -52t52 -126t-52.5 -126.5t-125.5 -52.5t-125.5 52.5t-52.5 126.5zM1225 152q0 74 52.5 126t125.5 52t125.5 -52 t52.5 -126t-52.5 -126.5t-125.5 -52.5t-125.5 52.5t-52.5 126.5z" />
<glyph unicode="&#x202f;" horiz-adv-x="378" />
<glyph unicode="&#x2039;" horiz-adv-x="706" d="M123 428v45l430 371l31 -23l-166 -370l166 -363l-31 -31z" />
<glyph unicode="&#x203a;" horiz-adv-x="706" d="M123 88l186 363l-186 370l31 23l450 -371v-45l-450 -371z" />
<glyph unicode="&#x205f;" horiz-adv-x="473" />
<glyph unicode="&#x20ac;" horiz-adv-x="1333" d="M53 571v105h154v61q0 59 2 86h-156v101h172q18 85 49.5 165t83 156t115.5 132.5t151.5 91t186.5 34.5q106 0 181.5 -33.5t119.5 -78.5l78 110h51v-395h-70q-28 141 -106.5 232.5t-200.5 91.5q-268 0 -268 -506h479v-101h-479v-147h479v-105h-479q5 -526 270 -526 q117 0 198 92t107 230h70v-367h-51l-82 82q-42 -45 -120 -77t-179 -32q-100 0 -188.5 35t-153 93t-116 136t-83 161.5t-47.5 172.5h-168z" />
<glyph unicode="&#x2122;" horiz-adv-x="1730" d="M55 1296v248h658v-248h-66q-2 88 -38.5 140.5t-102.5 52.5h-8v-653h110v-58h-440v58h111v653h-15q-67 -3 -104 -54.5t-39 -138.5h-66zM762 778v58h69v653h-69v55h315l158 -532h8l166 532h287v-55h-72v-653h72v-58h-381v58h112v550h-8l-188 -616h-117l-194 621h-9v-555 h113v-58h-262z" />
<glyph unicode="&#x25fc;" horiz-adv-x="921" d="M0 0v922h922v-922h-922z" />
</font>
</defs>
</svg>
