<?xml version="1.0" encoding="utf-8"?>
<!-- Generator: Adobe Illustrator 16.0.1, SVG Export Plug-In . SVG Version: 6.00 Build 0)  -->
<!DOCTYPE svg PUBLIC "-//W3C//DTD SVG 1.1//EN" "http://www.w3.org/Graphics/SVG/1.1/DTD/svg11.dtd">
<svg version="1.1" id="Layer_1" xmlns="http://www.w3.org/2000/svg" xmlns:xlink="http://www.w3.org/1999/xlink" x="0px" y="0px"
	 width="108px" height="108px" viewBox="0 0 108 108" enable-background="new 0 0 108 108" xml:space="preserve">
<g>
	<defs>
		<rect id="SVGID_1_" width="108" height="108"/>
	</defs>
	<clipPath id="SVGID_2_">
		<use xlink:href="#SVGID_1_"  overflow="visible"/>
	</clipPath>
	<path clip-path="url(#SVGID_2_)" fill="#BCBEC0" d="M92.569,102.225c-3.521-1.697-8.067-2.545-13.64-2.545
		c-3.855,0-7.009,0.817-9.459,2.451c-2.317,1.544-3.539,3.501-3.666,5.869h31.986C97.473,105.677,95.734,103.751,92.569,102.225"/>
	<path clip-path="url(#SVGID_2_)" fill="#BCBEC0" d="M69.502,93.143c-3.856-2.473-5.783-4.923-5.783-7.354
		c0-1.843,0.826-3.52,2.482-5.027c1.655-1.51,3.887-2.619,6.694-3.332c-8.507-3.771-12.761-9.868-12.761-18.29
		c0-6.16,2.254-11.032,6.758-14.614c4.504-3.583,10.654-5.374,18.449-5.374H108V0H0v108h54.987
		C55.106,100.33,59.942,95.377,69.502,93.143"/>
	<path clip-path="url(#SVGID_2_)" fill="#BCBEC0" d="M97.472,48.075c2.263,2.306,3.834,4.4,4.714,6.286
		c0.881,1.885,1.32,4.044,1.32,6.474c0,3.017-0.859,5.982-2.577,8.895c-1.719,2.912-3.929,5.144-6.631,6.694
		c-2.703,1.55-7.134,2.786-13.294,3.708c-4.316,0.629-6.475,2.115-6.475,4.463c0,1.341,0.807,2.441,2.42,3.3s4.535,1.75,8.769,2.671
		c7.081,1.551,11.638,2.766,13.671,3.645c2.032,0.882,3.866,2.139,5.5,3.772c1.383,1.383,2.42,2.944,3.111,4.683v-54.59H97.472z"/>
	<path clip-path="url(#SVGID_2_)" fill="#BCBEC0" d="M87.594,56.693c-0.655-2.513-2.24-3.769-4.754-3.769
		c-0.572,0-1.109,0.087-1.612,0.261c-0.502,0.175-0.96,0.426-1.372,0.754s-0.764,0.724-1.057,1.185
		c-0.295,0.46-0.518,0.983-0.672,1.569H87.594z M92.433,60.548H77.813c0.126,1.675,0.671,3.009,1.634,4
		c0.963,0.978,2.199,1.466,3.707,1.466c1.174,0,2.143-0.279,2.911-0.838c0.754-0.558,1.612-1.591,2.576-3.099l3.979,2.22
		c-0.615,1.047-1.264,1.943-1.947,2.69c-0.686,0.747-1.418,1.361-2.199,1.844c-0.782,0.481-1.627,0.834-2.535,1.058
		c-0.907,0.223-1.893,0.335-2.952,0.335c-3.045,0-5.487-0.977-7.331-2.932c-1.843-1.97-2.765-4.58-2.765-7.833
		c0-3.226,0.894-5.836,2.681-7.833c1.803-1.97,4.189-2.953,7.163-2.953c3.002,0,5.376,0.956,7.121,2.869
		c1.731,1.898,2.597,4.53,2.597,7.896L92.433,60.548z"/>
</g>
</svg>
